<?xml version="1.0" encoding="utf-8"?>
<!-- Generator: Adobe Illustrator 21.0.0, SVG Export Plug-In . SVG Version: 6.00 Build 0)  -->
<svg version="1.1" xmlns="http://www.w3.org/2000/svg" xmlns:xlink="http://www.w3.org/1999/xlink" x="0px" y="0px"
	 viewBox="0 0 879.1 611.3" enable-background="new 0 0 879.1 611.3" xml:space="preserve">
<g id="Layer_1">
</g>
<g id="Layer_5">
</g>
<g id="Layer_2">
</g>
<g id="Layer_3">
</g>
<g id="Layer_4">
</g>
<g id="Layer_6">
  <g class="flowStep">
	<ellipse fill="#808285" cx="192.9" cy="125.5" rx="11.3" ry="10.4"/>
	<rect x="189.2" y="119.1" fill="none" width="9.2" height="12.3"/>

		<text transform="matrix(1.0035 0 0 1 189.1728 130.7749)" fill="#FFFFFF" font-family="'HelvNeueBoldforIBM'" font-size="16.3046px">1</text>
  </g>
  <g class="flowStep">
	<ellipse fill="#808285" cx="74.1" cy="339.8" rx="11.3" ry="10.4"/>
	<rect x="69.6" y="333.3" fill="none" width="9.8" height="11.9"/>

		<text transform="matrix(1.0035 0 0 1 69.5563 344.9707)" fill="#FFFFFF" font-family="'HelvNeueBoldforIBM'" font-size="16.3046px">2</text>
  </g>
  <g class="flowStep">
	<ellipse fill="#808285" cx="486.9" cy="77.2" rx="11.3" ry="10.4"/>
	<rect x="482.5" y="70.3" fill="none" width="13.1" height="13.1"/>

		<text transform="matrix(1.0035 0 0 1 482.5287 81.9387)" fill="#FFFFFF" font-family="'HelvNeueMediumforIBM'" font-size="16.3046px">3</text>
  </g>
  <g class="flowStep">
	<ellipse fill="#808285" cx="699.7" cy="422.6" rx="11.3" ry="10.4"/>
	<rect x="695.3" y="415.7" fill="none" width="13.1" height="13.1"/>

		<text transform="matrix(1.0035 0 0 1 695.3083 427.321)" fill="#FFFFFF" font-family="'HelvNeueMediumforIBM'" font-size="16.3046px">3</text>
  </g>
  <g class="flowStep">
	<ellipse fill="#808285" cx="543.2" cy="324.7" rx="11.3" ry="10.4"/>
	<rect x="538.8" y="317.7" fill="none" width="13.1" height="13.1"/>

		<text transform="matrix(1.0035 0 0 1 538.8242 329.3835)" fill="#FFFFFF" font-family="'HelvNeueMediumforIBM'" font-size="16.3046px">3</text>
  </g>
	<g class="flowStep">
		<ellipse fill="#808285" cx="488.7" cy="328.2" rx="11.3" ry="11.2"/>
		<g>
			<g>
				<rect x="481.1" y="322.1" fill="none" width="13.9" height="15.2"/>

					<text transform="matrix(1.0035 0 0 1 483.4833 333.707)" fill="#FFFFFF" font-family="'HelvNeueBoldforIBM'" font-size="16.3046px">4</text>
			</g>
		</g>
	</g>
	<g class="flowStep">
		<ellipse fill="#808285" cx="543.2" cy="423.2" rx="11.3" ry="11.2"/>
		<g>
			<g>
				<rect x="536.2" y="417.7" fill="none" width="13.9" height="15.2"/>

					<text transform="matrix(1.0035 0 0 1 538.4738 429.3271)" fill="#FFFFFF" font-family="'HelvNeueBoldforIBM'" font-size="16.3046px">5</text>
			</g>
		</g>
	</g>
	<g class="flowStep">
		<ellipse fill="#808285" cx="88" cy="362.3" rx="11.2" ry="11.2"/>
		<g>
			<g>
				<rect x="80.5" y="356.5" fill="none" width="13.8" height="15.2"/>

					<text transform="matrix(1.0035 0 0 1 82.6091 368.1013)" fill="#FFFFFF" font-family="'HelvNeueBoldforIBM'" font-size="16.3102px">6</text>
			</g>
		</g>
	</g>
  <g class="flowStep">
	<ellipse fill="#808285" cx="803.8" cy="220.2" rx="11.3" ry="10.4"/>
	<rect x="799.3" y="213.7" fill="none" width="9.8" height="11.9"/>

		<text transform="matrix(1.0035 0 0 1 799.2714 225.3686)" fill="#FFFFFF" font-family="'HelvNeueBoldforIBM'" font-size="16.3046px">2</text>
  </g>
	<g class="flowStep">
		<ellipse fill="#808285" cx="803.7" cy="323.1" rx="11.2" ry="11.2"/>
		<g>
			<g>
				<rect x="796.2" y="317.2" fill="none" width="13.8" height="15.2"/>

					<text transform="matrix(1.0035 0 0 1 798.3173 328.8921)" fill="#FFFFFF" font-family="'HelvNeueBoldforIBM'" font-size="16.3102px">6</text>
			</g>
		</g>
	</g>
	<g class="flowStep">
		<ellipse fill="#808285" cx="622.7" cy="422.8" rx="11.3" ry="11.2"/>
		<g>
			<g>
				<rect x="615.1" y="416.8" fill="none" width="13.9" height="15.3"/>

					<text transform="matrix(1.0035 0 0 1 618.2004 428.5583)" fill="#FFFFFF" font-family="'HelvNeueBoldforIBM'" font-size="16.4473px">7</text>
			</g>
		</g>
	</g>
	<g>
		<path fill="#E6E6E5" d="M718.1,218.7h-14.8c-1.1,0-2,0.9-2,2v14.8c0,1.1,0.9,2,2,2h14.8c1.1,0,2-0.9,2-2v-14.8
			C720.1,219.6,719.2,218.7,718.1,218.7z"/>
		<g>
			<g>

					<line fill="none" stroke="#989898" stroke-width="0.9234" stroke-miterlimit="10" x1="707.5" y1="231.1" x2="713.7" y2="224.9"/>
				<g>
					<polygon fill="#989898" points="711.3,231.6 711.3,230.8 707.7,231 707.8,227.3 707.1,227.3 706.9,231.7 					"/>
				</g>
				<g>
					<polygon fill="#989898" points="714.1,228.8 713.4,228.7 713.5,225.1 709.9,225.2 709.9,224.5 714.3,224.3 					"/>
				</g>
			</g>
		</g>
		<polyline fill="none" stroke="#989898" stroke-width="0.9234" stroke-miterlimit="10" points="707.8,234.8 704.1,234.8
			704.1,231.1 		"/>
		<polyline fill="none" stroke="#989898" stroke-width="0.9234" stroke-miterlimit="10" points="714.3,221.6 718,221.6 718,225.3
			"/>
	</g>
	<g>
		<path fill="#E6E6E5" d="M341.1,324.7h-14.8c-1.1,0-2,0.9-2,2v14.8c0,1.1,0.9,2,2,2h14.8c1.1,0,2-0.9,2-2v-14.8
			C343.1,325.6,342.2,324.7,341.1,324.7z"/>
		<g>
			<g>

					<line fill="none" stroke="#989898" stroke-width="0.9234" stroke-miterlimit="10" x1="330.5" y1="337.1" x2="336.7" y2="330.9"/>
				<g>
					<polygon fill="#989898" points="334.3,337.6 334.3,336.8 330.7,337 330.8,333.3 330.1,333.3 329.9,337.7 					"/>
				</g>
				<g>
					<polygon fill="#989898" points="337.1,334.8 336.4,334.7 336.5,331.1 332.9,331.2 332.9,330.5 337.3,330.3 					"/>
				</g>
			</g>
		</g>
		<polyline fill="none" stroke="#989898" stroke-width="0.9234" stroke-miterlimit="10" points="330.8,340.8 327.1,340.8
			327.1,337.1 		"/>
		<polyline fill="none" stroke="#989898" stroke-width="0.9234" stroke-miterlimit="10" points="337.3,327.6 341,327.6 341,331.3
			"/>
	</g>
	<g>
		<path fill="#E6E6E5" d="M290.1,248.7h-14.8c-1.1,0-2,0.9-2,2v14.8c0,1.1,0.9,2,2,2h14.8c1.1,0,2-0.9,2-2v-14.8
			C292.1,249.6,291.2,248.7,290.1,248.7z"/>
		<g>
			<g>

					<line fill="none" stroke="#989898" stroke-width="0.9234" stroke-miterlimit="10" x1="279.5" y1="261.1" x2="285.7" y2="254.9"/>
				<g>
					<polygon fill="#989898" points="283.3,261.6 283.3,260.8 279.7,261 279.8,257.3 279.1,257.3 278.9,261.7 					"/>
				</g>
				<g>
					<polygon fill="#989898" points="286.1,258.8 285.4,258.7 285.5,255.1 281.9,255.2 281.9,254.5 286.3,254.3 					"/>
				</g>
			</g>
		</g>
		<polyline fill="none" stroke="#989898" stroke-width="0.9234" stroke-miterlimit="10" points="279.8,264.8 276.1,264.8
			276.1,261.1 		"/>
		<polyline fill="none" stroke="#989898" stroke-width="0.9234" stroke-miterlimit="10" points="286.3,251.6 290,251.6 290,255.3
			"/>
	</g>
	<g>
		<line fill="#808285" x1="82.4" y1="158.9" x2="114.2" y2="158.9"/>
		<g>
			<line fill="none" stroke="#EEC11B" stroke-width="1.5" stroke-miterlimit="10" x1="84" y1="158.9" x2="112.5" y2="158.9"/>
			<g>
				<polygon fill="#EEC11B" points="89,165 90,163.9 84.6,158.9 90,153.8 89,152.7 82.4,158.9 				"/>
			</g>
			<g>
				<polygon fill="#EEC11B" points="107.6,165 106.5,163.9 112,158.9 106.5,153.8 107.6,152.7 114.2,158.9 				"/>
			</g>
		</g>
	</g>
	<g>
		<text transform="matrix(1 0 0 1 489.6389 383.4724)"><tspan x="0" y="0" fill="#4378BB" font-family="'HelveticaNeue-Bold'" font-size="9px">APPLICATION</tspan><tspan x="16.2" y="10.8" fill="#4378BB" font-family="'HelveticaNeue-Bold'" font-size="9px">LOGIC</tspan></text>
	</g>
	<g>
		<text transform="matrix(1 0 0 1 501.8483 88.4558)"><tspan x="0" y="0" fill="#4378BB" font-family="'HelveticaNeue-Bold'" font-size="9px">DEVICE</tspan><tspan x="-6.2" y="10.8" fill="#4378BB" font-family="'HelveticaNeue-Bold'" font-size="9px">REGISTRY</tspan></text>
	</g>
	<g id="iot_deviceregistry">
		<circle fill="#355E80" cx="518" cy="55.9" r="23.4"/>
		<g>
			<g>
				<ellipse fill="#FFFFFF" cx="517.8" cy="41.5" rx="5.4" ry="2.3"/>
				<path fill="#FFFFFF" d="M523.4,42.3c-0.3,1.2-2.7,2.2-5.6,2.2s-5.4-0.9-5.6-2.2h0v9v0c0,1.3,2.5,2.4,5.7,2.4s5.7-1.1,5.7-2.4
					L523.4,42.3L523.4,42.3z"/>
			</g>
			<g>
				<ellipse fill="#FFFFFF" cx="509.2" cy="56.7" rx="5.4" ry="2.3"/>
				<path fill="#FFFFFF" d="M514.8,57.5c-0.3,1.2-2.7,2.2-5.6,2.2s-5.4-0.9-5.6-2.2h0v9v0c0,1.3,2.5,2.4,5.7,2.4
					c3.1,0,5.7-1.1,5.7-2.4L514.8,57.5L514.8,57.5z"/>
			</g>
			<g>
				<ellipse fill="#FFFFFF" cx="526.8" cy="56.7" rx="5.4" ry="2.3"/>
				<path fill="#FFFFFF" d="M532.4,57.5c-0.3,1.2-2.7,2.2-5.6,2.2c-2.9,0-5.4-0.9-5.6-2.2h0v9v0c0,1.3,2.5,2.4,5.7,2.4
					c3.1,0,5.7-1.1,5.7-2.4L532.4,57.5L532.4,57.5z"/>
			</g>
			<rect x="515.5" y="61.8" fill="#FFFFFF" width="4.9" height="2.8"/>
			<path fill="#FFFFFF" d="M511.6,51.2l-2.6,2.5c0.1,0,0.3,0,0.4,0c1.1,0,2.1,0.1,2.9,0.4l0.7-0.7c-0.9-0.4-1.5-1-1.5-1.6v0V51.2z"
				/>
			<path fill="#FFFFFF" d="M526.4,53.7c0.1,0,0.2,0,0.3,0l-2.7-2.7v0.8c0,0.6-0.5,1.1-1.3,1.5l0.7,0.7
				C524.2,53.9,525.3,53.7,526.4,53.7z"/>
		</g>
	</g>
	<g>
		<text transform="matrix(1 0 0 1 509.3464 285.5334)"><tspan x="0" y="0" fill="#4378BB" font-family="'HelveticaNeue-Bold'" font-size="9px">API </tspan><tspan x="-25.6" y="10.8" fill="#4378BB" font-family="'HelveticaNeue-Bold'" font-size="9px">MANAGEMENT </tspan></text>
	</g>
	<g id="iot_devicedatastore">
		<circle fill="#355E80" cx="675.7" cy="448.3" r="23"/>
		<ellipse fill="#FFFFFF" cx="675.7" cy="437.9" rx="11.2" ry="4.8"/>
		<path fill="#FFFFFF" d="M687.3,439.6c-0.6,2.5-5.6,4.5-11.7,4.5c-6.1,0-11.1-2-11.7-4.5H664v18.6l0,0c0,2.7,5.2,5,11.7,5
			s11.7-2.2,11.7-5L687.3,439.6L687.3,439.6z"/>
	</g>
	<g>
		<text transform="matrix(1 0 0 1 659.2104 481.268)"><tspan x="0" y="0" fill="#4378BB" font-family="'HelveticaNeue-Bold'" font-size="9px">DEVICE</tspan><tspan x="-12.2" y="10.8" fill="#4378BB" font-family="'HelveticaNeue-Bold'" font-size="9px">DATA STORE</tspan></text>
	</g>
	<g>
		<text transform="matrix(1 0 0 1 501.508 187.0766)"><tspan x="0" y="0" fill="#4378BB" font-family="'HelveticaNeue-Bold'" font-size="9px">DEVICE</tspan><tspan x="-16.3" y="10.8" fill="#4378BB" font-family="'HelveticaNeue-Bold'" font-size="9px">MANAGEMENT</tspan></text>
	</g>
	<rect x="509.6" y="139.9" fill="#FFFFFF" width="15.6" height="25.1"/>
	<g>
		<text transform="matrix(1 0 0 1 34.3325 417.4421)"><tspan x="0" y="0" fill="#4378BB" font-family="'HelveticaNeue-Bold'" font-size="9px">END USER</tspan><tspan x="-7.2" y="10.8" fill="#4378BB" font-family="'HelveticaNeue-Bold'" font-size="9px">APPLICATION</tspan></text>
	</g>
	<g id="iot_userapp">
		<circle fill="#EEC11B" cx="57.6" cy="384.3" r="23.1"/>
		<path fill="#FFFFFF" d="M64.3,378.5l-2,0c0,1.4-0.3,2.8-0.8,4.1l-6.3-3c0.4-1.3,0.1-2.9-1-3.9c-1.3-1.3-3.3-1.5-4.8-0.6l-1.5-1.5
			l-1.4,1.4l1.5,1.5c-0.9,1.5-0.7,3.5,0.6,4.8c1.1,1.1,2.6,1.4,3.9,1l8.6,17.8l0.9-0.4l-4.7-9.7c1.2-0.6,2.3-1.4,3.2-2.3
			c0.9-0.9,1.7-2,2.3-3.2l9.7,4.7l0.4-0.9l-9.7-4.7C63.9,381.9,64.3,380.2,64.3,378.5z M50.7,377.8c0.4-0.4,1-0.4,1.4,0
			c0.4,0.4,0.4,1,0,1.4c-0.4,0.4-1,0.4-1.4,0C50.3,378.8,50.3,378.2,50.7,377.8z M56.4,388.1l-3-6.3c0.3-0.2,0.5-0.4,0.8-0.6
			c0.2-0.2,0.4-0.5,0.6-0.8l6.3,3C60,385.5,58.4,387.1,56.4,388.1z"/>
	</g>
	<g>
		<text transform="matrix(1 0 0 1 139.7751 83.7759)"><tspan x="0" y="0" fill="#4378BB" font-family="'HelveticaNeue-Bold'" font-size="9px">PHYSICAL</tspan><tspan x="6.6" y="10.8" fill="#4378BB" font-family="'HelveticaNeue-Bold'" font-size="9px">ENTITY</tspan></text>
	</g>
	<g>
		<text transform="matrix(1 0 0 1 36.3876 193.9184)" fill="#4378BB" font-family="'HelveticaNeue-Bold'" font-size="9px">IoT USER</text>
	</g>
	<g id="iot_user">
		<circle fill="#EEC11B" cx="57" cy="158.5" r="23.4"/>
		<g>
			<g>
				<path fill="#FFFFFF" d="M62.8,164.2l-11.5-0.1c-1.6,0-2.9,1.3-2.9,2.9l0,2.9l17.3,0.1l0-2.9C65.6,165.6,64.3,164.3,62.8,164.2z"
					/>
				<path fill="#FFFFFF" d="M57,161.3c-4,0-7.3-3.3-7.3-7.3c0-4,3.3-7.3,7.3-7.3c4,0,7.3,3.3,7.3,7.3C64.3,158,61,161.3,57,161.3z
					 M57,147.5c-3.5,0-6.4,2.9-6.4,6.4c0,3.5,2.9,6.4,6.4,6.4c3.5,0,6.4-2.9,6.4-6.4C63.4,150.4,60.5,147.5,57,147.5z"/>
			</g>
		</g>
	</g>
	<g>
		<text transform="matrix(1 0 0 1 402.4916 480.8327)" fill="#4378BB" font-family="'HelveticaNeue-Bold'" font-size="9px">VISUALIZATION</text>
	</g>
	<g id="iot_transform">
		<circle fill="#8FC73F" cx="728.6" cy="248.9" r="23"/>
		<g>
			<g>
				<path fill="#FFFFFF" d="M720.6,258.9c-4.8,0-8.8-3.9-8.8-8.8s3.9-8.8,8.8-8.8c3.4,0,6.6,2,8,5.2l-0.9,0.4
					c-1.3-2.8-4-4.6-7.1-4.6c-4.3,0-7.8,3.5-7.8,7.8c0,4.3,3.5,7.8,7.8,7.8l0.1,0l0,1l-0.1,0C720.7,258.9,720.7,258.9,720.6,258.9z"
					/>
				<g>
					<polygon fill="#FFFFFF" points="729.6,243.2 728.9,243 727.9,246.5 724.5,245.3 724.2,246 728.5,247.5 					"/>
				</g>
			</g>
			<rect x="720.6" y="257.9" fill="#FFFFFF" width="12.7" height="1"/>
			<path fill="#FFFFFF" d="M737.2,242.6c-0.3-4.4-4.1-7.9-8.5-7.9c-4.2,0-7.8,3-8.4,7.2l-1-0.2c0.7-4.7,4.7-8,9.4-8
				c5,0,9.1,3.9,9.5,8.8L737.2,242.6z"/>
			<g>
				<path fill="#FFFFFF" d="M737,259.7c-4.2,0-7.9-3-8.6-7.2l1-0.2c0.7,3.7,3.9,6.4,7.7,6.4c4.3,0,7.8-3.5,7.8-7.8
					c0-4.2-3.4-7.7-7.6-7.8l0-1c4.7,0.1,8.6,4,8.6,8.8C745.8,255.8,741.8,259.7,737,259.7z"/>
				<g>
					<polygon fill="#FFFFFF" points="726.6,255.5 727.3,255.9 729,252.7 732.1,254.6 732.5,254 728.7,251.6 					"/>
				</g>
			</g>
		</g>
	</g>
	<g>
		<text transform="matrix(1 0 0 1 682.039 283.0383)"><tspan x="0" y="0" fill="#4378BB" font-family="'HelveticaNeue-Bold'" font-size="9px">TRANSFORMATION &amp;</tspan><tspan x="13.4" y="10.8" fill="#4378BB" font-family="'HelveticaNeue-Bold'" font-size="9px">CONNECTIVITY</tspan></text>
	</g>
	<rect x="783" y="222.5" fill="none" width="60.4" height="18.1"/>
	<g>
		<text transform="matrix(1 0 0 1 492.883 482.2409)" fill="#4378BB" font-family="'HelveticaNeue-Bold'" font-size="9px">ANALYTICS</text>
	</g>
	<g id="iot_analytics">
		<circle fill="#734299" cx="517.8" cy="448.1" r="23"/>
		<path fill="#FFFFFF" d="M530.7,443.9c-1,0-1.8,0.8-1.8,1.8c0,0.6,0.3,1.2,0.8,1.5l0,0l-3.4,7.6c-0.2,0-0.3-0.1-0.5-0.1
			c-0.4,0-0.7,0.1-1,0.3v0l-0.7-3.7c0.6-0.3,1.1-0.9,1.1-1.6c0-1-0.9-1.6-1.8-1.6c-0.5,0-1-0.2-1.4,0.8h0l-1.7-0.6
			c-0.1-0.9-0.8-1.7-1.7-1.7c-0.1,0,0,0.1-0.2,0.1l-1.2-4.4v0c0-0.4,0-0.5,0-0.8c0-1-0.9-1.8-1.9-1.8c-1,0-1.8,0.8-1.8,1.8
			c0,0,0,0,0,0l-7.2,6.1c-0.3-0.4-0.8-0.6-1.3-0.6c-1,0-1.8,0.8-1.8,1.8c0,1,0.8,1.8,1.8,1.8c1,0,1.8-0.8,1.8-1.8
			c0-0.2,0-0.3-0.1-0.5l7-6l0,0c0.2,0.5,0.9,0.9,1.5,0.9c0.4,0,0.8-0.1,1.1-0.4l0,0.1l1.3,4.1h0c-0.4,0-0.7,0.8-0.7,1.4
			c0,1,0.8,1.8,1.8,1.8c0.8,0,1.6-0.5,1.8-1.2l1.7,0.4v0c0,0.1,0,0.3,0,0.4c0,1,0.6,1.8,1.6,1.8c0.1,0,0.1,0,0.2,0
			c-0.1,0-0.3,0-0.4,0c0,0-0.1,0-0.1,0l0.9,4.4c-0.1,0.2-0.1,0.4-0.1,0.6c0,1,0.8,1.8,1.8,1.8c1,0,1.8-0.8,1.8-1.8
			c0-0.5-0.2-1-0.6-1.3l0,0l3.5-7.7l0,0c0.1,0,0.2,0,0.3,0c1,0,1.8-0.8,1.8-1.8S531.7,443.9,530.7,443.9z M504.8,449.6
			c-0.5,0-1-0.4-1-1c0-0.5,0.4-1,1-1c0.5,0,1,0.4,1,1C505.8,449.2,505.3,449.6,504.8,449.6z M506.3,447.8
			C506.3,447.8,506.4,447.8,506.3,447.8C506.4,447.8,506.3,447.8,506.3,447.8z M513.4,441.8C513.4,441.8,513.4,441.8,513.4,441.8
			C513.4,441.8,513.4,441.8,513.4,441.8z M515.1,442.3c-0.5,0-1-0.4-1-1c0-0.5,0.4-1,1-1c0.5,0,1,0.4,1,1
			C516.1,441.9,515.6,442.3,515.1,442.3z M516.4,442.4C516.5,442.4,516.5,442.4,516.4,442.4C516.5,442.4,516.5,442.4,516.4,442.4z
			 M517.8,446.5C517.8,446.5,517.7,446.5,517.8,446.5C517.7,446.5,517.8,446.5,517.8,446.5z M518.5,449.1c-0.5,0-1-0.4-1-1
			c0-0.5,0.4-1,1-1c0.5,0,1,0.4,1,1C519.5,448.7,519,449.1,518.5,449.1z M520.2,448.5c0-0.1,0-0.2,0-0.3
			C520.3,448.3,520.3,448.4,520.2,448.5z M521.8,448.8C521.8,448.8,521.8,448.8,521.8,448.8C521.8,448.8,521.8,448.8,521.8,448.8z
			 M522.4,449.6c0-0.5,0.4-1,1-1c0.5,0,1,0.4,1,1c0,0.5-0.4,1-1,1C522.8,450.6,522.4,450.2,522.4,449.6z M524.5,455.3
			C524.4,455.4,524.4,455.4,524.5,455.3C524.4,455.4,524.4,455.4,524.5,455.3z M525.8,457.5c-0.5,0-1-0.4-1-1c0-0.5,0.4-1,1-1
			c0.5,0,1,0.4,1,1C526.8,457,526.4,457.5,525.8,457.5z M526.7,454.9C526.7,454.9,526.7,454.9,526.7,454.9
			C526.7,454.9,526.7,454.9,526.7,454.9z M530.1,447.4C530.1,447.4,530.1,447.4,530.1,447.4C530.1,447.4,530.1,447.4,530.1,447.4z
			 M530.7,446.7c-0.5,0-1-0.4-1-1c0-0.5,0.4-1,1-1c0.5,0,1,0.4,1,1C531.7,446.3,531.3,446.7,530.7,446.7z"/>
	</g>
	<g id="iot_iottransform">
		<circle fill="#8FC73F" cx="356.3" cy="350.5" r="23"/>
		<g>
			<g>
				<path fill="#FFFFFF" d="M348.3,360.5c-4.8,0-8.8-3.9-8.8-8.8s3.9-8.8,8.8-8.8c3.4,0,6.6,2,8,5.2l-0.9,0.4
					c-1.3-2.8-4-4.6-7.1-4.6c-4.3,0-7.8,3.5-7.8,7.8s3.5,7.8,7.8,7.8l0.1,0l0,1l-0.1,0C348.3,360.5,348.3,360.5,348.3,360.5z"/>
				<g>
					<polygon fill="#FFFFFF" points="357.2,344.8 356.5,344.6 355.6,348.2 352.1,347 351.9,347.7 356.1,349.1 					"/>
				</g>
			</g>
			<rect x="348.3" y="359.5" fill="#FFFFFF" width="12.7" height="1"/>
			<path fill="#FFFFFF" d="M364.9,344.3c-0.3-4.4-4.1-7.9-8.5-7.9c-4.2,0-7.8,3-8.4,7.2l-1-0.2c0.7-4.7,4.7-8,9.4-8
				c5,0,9.1,3.9,9.5,8.8L364.9,344.3z"/>
			<g>
				<path fill="#FFFFFF" d="M364.6,361.4c-4.2,0-7.9-3-8.6-7.2l1-0.2c0.7,3.7,3.9,6.4,7.7,6.4c4.3,0,7.8-3.5,7.8-7.8
					c0-4.2-3.4-7.7-7.6-7.8l0-1c4.7,0.1,8.6,4,8.6,8.8C373.4,357.4,369.5,361.4,364.6,361.4z"/>
				<g>
					<polygon fill="#FFFFFF" points="354.3,357.2 354.9,357.5 356.7,354.3 359.7,356.3 360.1,355.7 356.4,353.3 					"/>
				</g>
			</g>
		</g>
	</g>
	<g>
		<text transform="matrix(1 0 0 1 307.1672 383.1025)"><tspan x="0" y="0" fill="#4378BB" font-family="'HelveticaNeue-Bold'" font-size="9px">IoT TRANSFORMATION</tspan><tspan x="12.8" y="10.8" fill="#4378BB" font-family="'HelveticaNeue-Bold'" font-size="9px">&amp; CONNECTIVITY</tspan></text>
	</g>
	<g>
		<g>
			<rect x="272.8" y="305.7" fill="none" width="61" height="21.6"/>
			<text transform="matrix(1 0 0 1 290.7048 312.094)"><tspan x="0" y="0" fill="#4378BB" font-family="'HelveticaNeue-Bold'" font-size="9px">EDGE</tspan><tspan x="-9.8" y="10.8" fill="#4378BB" font-family="'HelveticaNeue-Bold'" font-size="9px">SERVICES</tspan></text>
		</g>
	</g>
	<g id="iot_edgesvcs">
		<circle fill="#8FC73F" cx="302.6" cy="277.2" r="24"/>
		<path fill="#FFFFFF" d="M302.6,263.3c-7.7,0-14,6.3-14,14s6.3,14,14,14s14-6.3,14-14S310.3,263.3,302.6,263.3z M315.3,277.2
			c0,1.1-0.2,2.2-0.4,3.2c-1.8-3.1-3.9-5.3-6.1-7c0.1-0.2,0.2-0.5,0.2-0.7c0-0.6-0.3-1-0.8-1.2c0.5-2.2,1.1-3.9,1.5-4.8
			C313.1,269,315.3,272.9,315.3,277.2z M309.1,282.5c0-0.6-0.5-1.1-1-1.2c-0.5-2.7-0.4-5.2-0.2-7.4c0.1,0,0.2,0,0.3-0.1
			c2.3,1.7,4.5,4.2,6.4,7.6c-0.3,0.8-0.6,1.5-1,2.2C312.1,283,310.6,282.6,309.1,282.5z M289.8,277.2c0-0.2,0-0.4,0-0.6
			c0.4,0.1,1.1,0.2,1.9,0.3c0,0.1,0.1,0.3,0.2,0.4c-0.8,0.8-1.5,1.4-1.9,1.7C289.9,278.5,289.8,277.9,289.8,277.2z M292.3,269.7
			c0.7-0.1,2.2-0.2,4-0.1c0.1,0.2,0.2,0.3,0.4,0.4c-1,2.3-2.1,4.1-3.2,5.5c-0.1-0.1-0.3-0.1-0.5-0.1c-0.5,0-0.9,0.3-1.2,0.7
			c-0.9-0.2-1.6-0.3-2-0.3C290.2,273.6,291,271.5,292.3,269.7z M294.2,276.1c1.1-1.5,2.3-3.4,3.4-5.8c0.4,0,0.7-0.2,0.9-0.5
			c0.6,0.1,1.2,0.2,1.8,0.4c1.9,0.4,4,1.2,6.2,2.6c0,0.4,0.2,0.7,0.5,1c-0.3,2.3-0.3,4.9,0.2,7.8c-0.4,0.2-0.7,0.6-0.7,1.1
			c-0.5,0.1-0.9,0.2-1.4,0.3c-0.2-0.3-0.6-0.4-1-0.4c-0.1,0-0.2,0-0.2,0c-1.5-1.8-3.6-3.3-6.2-4.4c-1.2-0.5-2.3-0.9-3.3-1.2
			c0,0,0,0,0-0.1C294.3,276.5,294.3,276.3,294.2,276.1z M305.4,283.7c0.5-0.1,0.9-0.2,1.4-0.2c0.2,0.3,0.6,0.5,1,0.5
			c0.4,1.4,0.9,2.7,1.6,4.1c-0.8,0.5-1.6,0.9-2.4,1.2c-0.2-1.8-0.8-3.4-1.7-4.9C305.3,284.2,305.4,284,305.4,283.7
			C305.4,283.7,305.4,283.7,305.4,283.7z M309,266.2c-0.4,1-1.1,2.8-1.6,5.2c-0.3,0.1-0.5,0.3-0.7,0.5c-2.8-1.6-5.6-2.5-8-2.9
			c0,0,0-0.1,0-0.1c0-0.4-0.1-0.7-0.4-0.9c0.3-1,0.6-2,0.9-3.1c1.1-0.3,2.2-0.5,3.3-0.5C304.9,264.5,307.1,265.1,309,266.2z
			 M298.3,265.2c-0.2,0.9-0.5,1.7-0.7,2.5c0,0-0.1,0-0.1,0c-0.6,0-1.2,0.5-1.3,1.1c-1.3-0.1-2.4,0-3.1,0
			C294.5,267.2,296.3,266,298.3,265.2z M290.2,280c0.4-0.3,1.3-0.9,2.4-2.1c0.1,0.1,0.3,0.1,0.5,0.1c0.4,0,0.7-0.2,1-0.5
			c2.9,0.9,6.6,2.5,9.1,5.3c-0.2,0.2-0.3,0.4-0.3,0.7c-0.5,0.2-1.1,0.5-1.6,0.7c-2.6,1.3-4.5,2.9-5.4,3.7
			C293,286.2,290.9,283.4,290.2,280z M296.6,288.5c1-0.9,3.4-2.8,6.4-4c0.2,0.4,0.6,0.6,1.1,0.6c0.2,0,0.4,0,0.5-0.1
			c0.8,1.3,1.3,2.8,1.5,4.6c-1.1,0.3-2.3,0.5-3.5,0.5C300.4,290,298.4,289.4,296.6,288.5z M310,287.6c-0.6-1.3-1.1-2.6-1.5-3.9
			c0.1-0.1,0.2-0.2,0.3-0.3c1.4,0.1,2.8,0.4,4.3,1.1C312.3,285.6,311.2,286.7,310,287.6z"/>
	</g>
	<g id="iot_peercloud">
		<rect x="233.9" y="160" fill="#FFFFFF" stroke="#808285" stroke-width="0" stroke-miterlimit="10" width="47" height="36.2"></rect>
		<path fill="#FFFFFF" stroke="#808285" stroke-width="1.3202" stroke-miterlimit="10" d="M247.1,195c-6.6,0-11.9-5.3-11.9-11.9
			c0-6.6,5.3-11.9,11.9-11.9c4.7,0,8.9,2.7,10.8,7l-1.2,0.6c-1.7-3.8-5.5-6.2-9.6-6.2c-5.8,0-10.6,4.7-10.6,10.6s4.7,10.6,10.6,10.6
			l0.2,0l0,1.3l-0.1,0C247.2,195,247.1,195,247.1,195z"/>
		<path fill="#FFFFFF" stroke="#808285" stroke-width="1.3202" stroke-miterlimit="10" d="M269.6,173c-0.5-6-5.5-10.7-11.6-10.7
			c-5.7,0-10.6,4.1-11.5,9.8l-1.3-0.2c1-6.3,6.4-10.9,12.8-10.9c6.7,0,12.4,5.3,12.9,12L269.6,173z"/>
		<path fill="#FFFFFF" stroke="#808285" stroke-width="1.3202" stroke-miterlimit="10" d="M269.3,196.2c-5.8,0-10.7-4.1-11.7-9.8
			l1.3-0.2c0.9,5,5.3,8.7,10.4,8.7c5.8,0,10.6-4.7,10.6-10.6c0-5.7-4.6-10.4-10.3-10.6l0-1.3c6.4,0.1,11.6,5.5,11.6,11.9
			C281.2,190.8,275.9,196.2,269.3,196.2z"/>
	</g>
	<g>
		<g>
			<rect x="232.4" y="198.6" fill="none" width="56.6" height="21.6"/>
			<text transform="matrix(1 0 0 1 248.6574 205.0495)"><tspan x="0" y="0" fill="#4378BB" font-family="'HelveticaNeue-Bold'" font-size="9px">PEER </tspan><tspan x="-4.1" y="10.8" fill="#4378BB" font-family="'HelveticaNeue-Bold'" font-size="9px">CLOUD</tspan></text>
		</g>
	</g>
	<rect x="105" y="545.9" fill="none" stroke="#4378BB" stroke-width="1.5" stroke-miterlimit="10" width="764.3" height="57.6"/>
	<g>
		<g>
			<g>
				<g>
					<rect x="133.9" y="216.5" fill="none" width="56.6" height="10.8"/>
					<text transform="matrix(1 0 0 1 145.5353 222.8913)" fill="#4378BB" font-family="'HelveticaNeue-Bold'" font-size="9px">DEVICE</text>
				</g>
			</g>
		</g>
	</g>
	<g>
		<g>
			<g>
				<g>
					<rect x="179.2" y="332.3" fill="none" width="63.1" height="10.8"/>
					<text transform="matrix(1 0 0 1 180.2316 338.7287)" fill="#4378BB" font-family="'HelveticaNeue-Bold'" font-size="9px">IoT GATEWAY</text>
				</g>
			</g>
		</g>
	</g>
	<g>
		<text transform="matrix(1 0 0 1 576.7995 481.7119)"><tspan x="0" y="0" fill="#4378BB" font-family="'HelveticaNeue-Bold'" font-size="9px">PROCESS</tspan><tspan x="-11.2" y="10.8" fill="#4378BB" font-family="'HelveticaNeue-Bold'" font-size="9px">MANAGEMENT</tspan></text>
	</g>
	<g>
		<text transform="matrix(1 0 0 1 795.8076 188.132)"><tspan x="0" y="0" fill="#4378BB" font-family="'HelveticaNeue-Bold'" font-size="9px">ENTERPRISE</tspan><tspan x="-11.8" y="10.8" fill="#4378BB" font-family="'HelveticaNeue-Bold'" font-size="9px">USER DIRECTORY</tspan></text>
	</g>
	<g id="iot_enterprisedirectory">
		<circle fill="#355E80" cx="825.4" cy="154.4" r="23"/>
		<path fill="#FFFFFF" d="M822.6,146.7l0-2.9l-11.5-0.1l0,2.9l0,2.9l-0.1,15.4l28.8,0.2l0.1-15.4l0-2.9L822.6,146.7z M838.8,164.1
			l-26.9-0.2l0.1-14.4l26.9,0.2L838.8,164.1z"/>
		<g>
			<path fill="#FFFFFF" d="M828.1,159.5l-4.6,0c-0.6,0-1.1,0.5-1.2,1.1l0,1.1l6.9,0l0-1.1C829.2,160,828.7,159.5,828.1,159.5z"/>
			<circle fill="none" stroke="#FFFFFF" stroke-width="0.3772" stroke-miterlimit="10" cx="825.8" cy="155.4" r="2.7"/>
		</g>
	</g>
	<g id="iot_enterprisedata">
		<circle fill="#355E80" cx="825.8" cy="248.1" r="23"/>
		<g>
			<ellipse fill="#FFFFFF" cx="825.8" cy="238.1" rx="10.8" ry="4.6"/>
			<path fill="#FFFFFF" d="M837,239.7c-0.6,2.4-5.4,4.3-11.2,4.3s-10.6-1.9-11.2-4.3h-0.1v17.9l0,0c0,2.6,5,4.8,11.2,4.8
				c6.2,0,11.2-2.1,11.2-4.8L837,239.7L837,239.7z"/>
		</g>
	</g>
	<g>
		<text transform="matrix(1 0 0 1 796.9433 283.0766)"><tspan x="0" y="0" fill="#4378BB" font-family="'HelveticaNeue-Bold'" font-size="9px">ENTERPRISE</tspan><tspan x="16.3" y="10.8" fill="#4378BB" font-family="'HelveticaNeue-Bold'" font-size="9px">DATA</tspan></text>
	</g>
	<g id="iot_enterpriseapp">
		<circle fill="#EEC11B" cx="825.4" cy="351.2" r="23"/>
		<path fill="#FFFFFF" d="M832.1,345.4h-2c0,1.4-0.3,2.8-0.8,4.1l-6.2-3c0.4-1.3,0.1-2.8-1-3.9c-1.3-1.3-3.3-1.5-4.8-0.6l-1.5-1.5
			l-1.4,1.4l1.5,1.5c-0.9,1.5-0.7,3.5,0.6,4.8c1,1,2.6,1.4,3.9,1l8.6,17.7l0.9-0.4l-4.7-9.7c1.2-0.6,2.2-1.4,3.2-2.3
			c0.9-0.9,1.7-2,2.3-3.2l9.7,4.7l0.4-0.9l-9.7-4.7C831.7,348.8,832.1,347.1,832.1,345.4z M818.5,344.7c0.4-0.4,1-0.4,1.4,0
			c0.4,0.4,0.4,1,0,1.4c-0.4,0.4-1,0.4-1.4,0C818.2,345.7,818.2,345.1,818.5,344.7z M824.2,355l-3-6.2c0.3-0.2,0.5-0.4,0.8-0.6
			c0.2-0.2,0.4-0.5,0.6-0.8l6.2,3C827.8,352.3,826.2,354,824.2,355z"/>
	</g>
	<g>
		<text transform="matrix(1 0 0 1 798.412 385.6714)"><tspan x="0" y="0" fill="#4378BB" font-family="'HelveticaNeue-Bold'" font-size="9px">ENTERPRISE</tspan><tspan x="-1.8" y="10.8" fill="#4378BB" font-family="'HelveticaNeue-Bold'" font-size="9px">APPLICATION</tspan></text>
	</g>
	<g>
		<text transform="matrix(1 0 0 1 600.6115 187.0766)"><tspan x="0" y="0" fill="#4378BB" font-family="'HelveticaNeue-Bold'" font-size="9px">DEVICE IDENTITY</tspan><tspan x="19.2" y="10.8" fill="#4378BB" font-family="'HelveticaNeue-Bold'" font-size="9px">SERVICE</tspan></text>
	</g>
	<g id="iot_deviceidsvc">
		<circle fill="#335D80" cx="639.8" cy="151.5" r="23"/>
		<g>
			<g>
				<path fill="none" d="M648.9,154.2v-0.7c0-1.4-1.3-2.7-2.7-2.7s-2.7,1.3-2.7,2.7v0.7c0.8-0.5,1.7-0.7,2.7-0.7
					C647.2,153.5,648.1,153.8,648.9,154.2z"/>
				<polygon fill="none" points="645.2,159.9 643.7,158.4 642.7,159.4 645.2,161.9 649.7,157.3 648.8,156.4 				"/>
				<ellipse fill="#FFFFFF" cx="635.7" cy="143.9" rx="7.1" ry="3"/>
				<path fill="#FFFFFF" d="M642.2,155.3v-1.8c0-1,0.4-1.9,1-2.6l0-5.9h0c-0.4,1.6-3.5,2.8-7.4,2.8c-3.9,0-7-1.2-7.4-2.8h0v11.8v0
					c0,1.7,3.3,3.1,7.4,3.1c2,0,3.8-0.3,5.1-0.9c0-0.1,0-0.1,0-0.2C640.8,157.5,641.4,156.3,642.2,155.3z"/>
				<path fill="none" stroke="#FFFFFF" stroke-width="0.4715" stroke-miterlimit="10" d="M640.7,159.1c0.1,2.9,2.5,5.2,5.4,5.2
					c3,0,5.4-2.4,5.4-5.4c0-1.4-0.5-2.6-1.3-3.6v-1.8c0-2.2-1.9-4-4-4c-1.2,0-2.3,0.6-3.1,1.5 M643.4,153.5c0-1.4,1.3-2.7,2.7-2.7
					c1.4,0,2.7,1.3,2.7,2.7v0.7c-0.8-0.5-1.7-0.7-2.7-0.7c-1,0-1.9,0.3-2.7,0.7V153.5z M645,161.9l-2.5-2.5l1-1l1.5,1.5l3.6-3.6l1,1
					L645,161.9z"/>
				<path fill="none" stroke="#FFFFFF" stroke-width="0.1886" stroke-miterlimit="10" d="M643.2,150.9c-0.6,0.7-1,1.6-1,2.6v1.8
					c-0.8,0.9-1.3,2.2-1.3,3.6c0,0.1,0,0.1,0,0.2"/>
			</g>
			<polygon fill="#FFFFFF" points="643.5,158.4 645,159.9 648.6,156.4 649.6,157.3 645,161.9 642.5,159.4 			"/>
		</g>
	</g>
	<circle id="iot_governance" fill="#03B29F" cx="552.4" cy="574.6" r="16.4"/>
	<g>
		<rect x="542.5" y="579.2" fill="#FFFFFF" width="19.9" height="1.2"/>
		<rect x="543.2" y="568.7" fill="#FFFFFF" width="18.5" height="1.2"/>
		<rect x="541.2" y="581.1" fill="#FFFFFF" width="22.5" height="1.2"/>
		<polygon fill="#FFFFFF" points="552.5,564 541.9,567.5 541.9,568.2 563.1,568.2 563.1,567.5 		"/>
		<rect x="543.2" y="570.5" fill="#FFFFFF" width="2.3" height="8.2"/>
		<rect x="559.4" y="570.5" fill="#FFFFFF" width="2.3" height="8.2"/>
		<rect x="551.3" y="570.5" fill="#FFFFFF" width="2.3" height="8.2"/>
		<rect x="547.3" y="570.5" fill="#FFFFFF" width="2.3" height="8.2"/>
		<rect x="555.5" y="570.5" fill="#FFFFFF" width="2.3" height="8.2"/>
	</g>
	<g>
		<text transform="matrix(1 0 0 1 573.0927 577.4097)" fill="#4378BB" font-family="'HelveticaNeue-Bold'" font-size="9px">IOT GOVERNANCE</text>
	</g>
	<g>
		<g>
			<line fill="none" stroke="#1A77B5" stroke-width="1.5" stroke-miterlimit="10" x1="488" y1="151.5" x2="369.3" y2="151.5"/>
			<g>
				<polygon fill="#1A77B5" points="483,145.4 482,146.5 487.4,151.5 482,156.6 483,157.7 489.6,151.5 				"/>
			</g>
		</g>
	</g>
	<g>
		<g>
			<g>
				<line fill="none" stroke="#1A77B5" stroke-width="1.5" stroke-miterlimit="10" x1="370.1" y1="152" x2="370.1" y2="320.7"/>
				<g>
					<polygon fill="#1A77B5" points="363.9,315.7 365,314.7 370.1,320.1 375.1,314.7 376.2,315.7 370.1,322.3 					"/>
				</g>
			</g>
		</g>
	</g>
	<g>
		<g>
			<line fill="#808285" x1="219.9" y1="342.2" x2="219.9" y2="381.3"/>
			<g>
				<line fill="none" stroke="#EEC11B" stroke-width="1.5" stroke-miterlimit="10" x1="219.9" y1="343.9" x2="219.9" y2="381.3"/>
				<g>
					<polygon fill="#EEC11B" points="213.7,348.8 214.8,349.8 219.9,344.4 224.9,349.8 226,348.8 219.9,342.2 					"/>
				</g>
			</g>
		</g>
		<g>
			<g>
				<line fill="#808285" x1="219.9" y1="380.8" x2="90" y2="380.8"/>
				<g>
					<line fill="none" stroke="#EEC11B" stroke-width="1.5" stroke-miterlimit="10" x1="219.9" y1="380.8" x2="91.6" y2="380.8"/>
					<g>
						<polygon fill="#EEC11B" points="96.6,374.6 97.6,375.7 92.2,380.7 97.6,385.8 96.6,386.9 90,380.7 						"/>
					</g>
				</g>
			</g>
		</g>
	</g>
	<g>
		<g>
			<line fill="#808285" x1="290.6" y1="323.4" x2="290.6" y2="395.8"/>
			<g>
				<line fill="none" stroke="#EEC11B" stroke-width="1.5" stroke-miterlimit="10" x1="290.6" y1="325" x2="290.6" y2="395.8"/>
				<g>
					<polygon fill="#EEC11B" points="284.5,330 285.6,331 290.6,325.6 295.6,331 296.7,330 290.6,323.4 					"/>
				</g>
			</g>
		</g>
		<g>
			<g>
				<line fill="#808285" x1="291.4" y1="395.4" x2="90" y2="395.4"/>
				<g>
					<line fill="none" stroke="#EEC11B" stroke-width="1.5" stroke-miterlimit="10" x1="291.4" y1="395.4" x2="91.6" y2="395.4"/>
					<g>
						<polygon fill="#EEC11B" points="96.6,389.2 97.6,390.3 92.2,395.4 97.6,400.4 96.6,401.5 90,395.4 						"/>
					</g>
				</g>
			</g>
		</g>
	</g>
	<g>
		<g>
			<line fill="none" stroke="#1A77B5" stroke-width="1.5" stroke-miterlimit="10" x1="759.5" y1="252.4" x2="793.8" y2="252.4"/>
			<g>
				<polygon fill="#1A77B5" points="764.4,258.5 765.5,257.4 760.1,252.4 765.5,247.3 764.4,246.2 757.8,252.4 				"/>
			</g>
			<g>
				<polygon fill="#1A77B5" points="788.8,258.5 787.8,257.4 793.2,252.4 787.8,247.3 788.8,246.2 795.4,252.4 				"/>
			</g>
		</g>
	</g>
	<g>
		<g>
			<line fill="none" stroke="#1A77B5" stroke-width="1.5" stroke-miterlimit="10" x1="255.8" y1="278.9" x2="276.2" y2="278.9"/>
			<g>
				<polygon fill="#1A77B5" points="260.8,285 261.8,283.9 256.4,278.9 261.8,273.8 260.8,272.7 254.2,278.9 				"/>
			</g>
			<g>
				<polygon fill="#1A77B5" points="271.2,285 270.2,283.9 275.6,278.9 270.2,273.8 271.2,272.7 277.8,278.9 				"/>
			</g>
		</g>
	</g>
	<g>
		<g>
			<line fill="none" stroke="#1A77B5" stroke-width="1.5" stroke-miterlimit="10" x1="386" y1="345.2" x2="436.9" y2="345.2"/>
			<g>
				<polygon fill="#1A77B5" points="391,351.3 392,350.2 386.6,345.2 392,340.1 391,339 384.4,345.2 				"/>
			</g>
		</g>
	</g>
	<g>
		<g>
			<line fill="none" stroke="#1A77B5" stroke-width="1.5" stroke-miterlimit="10" x1="387.2" y1="359.6" x2="490.9" y2="359.6"/>
			<g>
				<polygon fill="#1A77B5" points="392.2,365.8 393.2,364.7 387.8,359.6 393.2,354.6 392.2,353.5 385.6,359.6 				"/>
			</g>
			<g>
				<polygon fill="#1A77B5" points="486,365.8 484.9,364.7 490.4,359.6 484.9,354.6 486,353.5 492.6,359.6 				"/>
			</g>
		</g>
	</g>
	<g>
		<g>
			<line fill="none" stroke="#1A77B5" stroke-width="1.5" stroke-miterlimit="10" x1="548.8" y1="151.5" x2="608.2" y2="151.5"/>
			<g>
				<polygon fill="#1A77B5" points="553.8,157.7 554.8,156.6 549.4,151.5 554.8,146.5 553.8,145.4 547.2,151.5 				"/>
			</g>
			<g>
				<polygon fill="#1A77B5" points="603.3,157.7 602.3,156.6 607.7,151.5 602.3,146.5 603.3,145.4 609.9,151.5 				"/>
			</g>
		</g>
	</g>
	<g>
		<g>
			<g>
				<g>
					<line fill="none" stroke="#1A77B5" stroke-width="1.5" stroke-miterlimit="10" x1="793.8" y1="350.2" x2="731.9" y2="350.2"/>
					<g>
						<polygon fill="#1A77B5" points="788.8,344 787.8,345.1 793.2,350.2 787.8,355.2 788.8,356.3 795.4,350.2 						"/>
					</g>
				</g>
			</g>
		</g>
		<g>
			<g>
				<line fill="none" stroke="#1A77B5" stroke-width="1.5" stroke-miterlimit="10" x1="732.6" y1="299" x2="732.6" y2="350.2"/>
				<g>
					<polygon fill="#1A77B5" points="726.5,304 727.6,305 732.6,299.6 737.6,305 738.7,304 732.6,297.4 					"/>
				</g>
			</g>
		</g>
	</g>
	<g>
		<g>
			<g>
				<g>
					<line fill="none" stroke="#1A77B5" stroke-width="1.5" stroke-miterlimit="10" x1="732.6" y1="218.6" x2="732.6" y2="153.9"/>
					<g>
						<polygon fill="#1A77B5" points="738.7,213.6 737.6,212.6 732.6,218 727.6,212.6 726.5,213.6 732.6,220.2 						"/>
					</g>
				</g>
			</g>
		</g>
		<g>
			<g>
				<line fill="none" stroke="#1A77B5" stroke-width="1.5" stroke-miterlimit="10" x1="793.8" y1="153.9" x2="732" y2="153.9"/>
				<g>
					<polygon fill="#1A77B5" points="788.8,147.8 787.8,148.9 793.2,153.9 787.8,159 788.8,160.1 795.4,153.9 					"/>
				</g>
			</g>
		</g>
	</g>
	<g>
		<g>
			<g>
				<g>
					<line fill="none" stroke="#1A77B5" stroke-width="1.5" stroke-miterlimit="10" x1="491" y1="56.2" x2="355.6" y2="56.2"/>
					<g>
						<polygon fill="#1A77B5" points="486,50.1 485,51.2 490.4,56.2 485,61.2 486,62.3 492.6,56.2 						"/>
					</g>
				</g>
			</g>
		</g>
		<g>
			<g>
				<line fill="none" stroke="#1A77B5" stroke-width="1.5" stroke-miterlimit="10" x1="356.4" y1="320.6" x2="356.4" y2="56.2"/>
				<g>
					<polygon fill="#1A77B5" points="362.5,315.6 361.4,314.6 356.4,320 351.3,314.6 350.2,315.6 356.4,322.2 					"/>
				</g>
			</g>
		</g>
	</g>
	<g>
		<g>
			<g>
				<line fill="none" stroke="#1A77B5" stroke-width="1.5" stroke-miterlimit="10" x1="333.2" y1="282.8" x2="343.3" y2="282.8"/>
				<g>
					<polygon fill="#1A77B5" points="338.1,288.9 339.2,287.8 333.7,282.8 339.2,277.7 338.1,276.6 331.5,282.8 					"/>
				</g>
			</g>
		</g>
	</g>
	<g>
		<g>
			<line fill="none" stroke="#1A77B5" stroke-width="1.5" stroke-miterlimit="10" x1="343.2" y1="320.6" x2="343.2" y2="282.1"/>
			<g>
				<polygon fill="#1A77B5" points="349.4,315.7 348.3,314.6 343.2,320 338.2,314.6 337.1,315.7 343.2,322.3 				"/>
			</g>
		</g>
	</g>
	<g>
		<g>
			<g>
				<g>
					<line fill="none" stroke="#1A77B5" stroke-width="1.5" stroke-miterlimit="10" x1="161.1" y1="288.7" x2="137" y2="288.7"/>
					<g>
						<polygon fill="#1A77B5" points="156.1,282.5 155.1,283.6 160.5,288.6 155.1,293.7 156.1,294.8 162.7,288.6 						"/>
					</g>
				</g>
			</g>
		</g>
		<g>
			<g>
				<line fill="none" stroke="#1A77B5" stroke-width="1.5" stroke-miterlimit="10" x1="137.6" y1="218" x2="137.6" y2="288.7"/>
				<g>
					<polygon fill="#1A77B5" points="131.5,223 132.6,224 137.6,218.6 142.7,224 143.8,223 137.6,216.4 					"/>
				</g>
			</g>
		</g>
	</g>
	<g>
		<g>
			<g>
				<line fill="none" stroke="#1A77B5" stroke-width="1.5" stroke-miterlimit="10" x1="640.4" y1="56.1" x2="548.8" y2="56.1"/>
				<g>
					<polygon fill="#1A77B5" points="553.8,50 554.8,51.1 549.4,56.1 554.8,61.1 553.8,62.2 547.2,56.1 					"/>
				</g>
			</g>
		</g>
		<g>
			<g>
				<line fill="none" stroke="#1A77B5" stroke-width="1.5" stroke-miterlimit="10" x1="640.3" y1="122.1" x2="640.3" y2="56.1"/>
				<g>
					<polygon fill="#1A77B5" points="646.4,117.1 645.3,116.1 640.3,121.5 635.2,116.1 634.1,117.1 640.3,123.7 					"/>
				</g>
			</g>
		</g>
	</g>
	<g>
		<g>
			<g>
				<line fill="none" stroke="#1A77B5" stroke-width="1.5" stroke-miterlimit="10" x1="219.8" y1="265.1" x2="219.8" y2="178.8"/>
				<g>
					<polygon fill="#1A77B5" points="225.9,260.1 224.8,259.1 219.8,264.5 214.7,259.1 213.6,260.1 219.8,266.7 					"/>
				</g>
			</g>
		</g>
	</g>
	<g>
		<g>
			<line fill="none" stroke="#1A77B5" stroke-width="1.5" stroke-miterlimit="10" x1="232.2" y1="178.8" x2="219" y2="178.8"/>
			<g>
				<polygon fill="#1A77B5" points="227.2,172.6 226.2,173.7 231.6,178.8 226.2,183.8 227.2,184.9 233.8,178.8 				"/>
			</g>
		</g>
	</g>
	<line fill="none" stroke="#1A77B5" stroke-width="1.5" stroke-miterlimit="10" x1="687.9" y1="28.7" x2="343.2" y2="28.7"/>
	<g>
		<g>
			<g>
				<line fill="none" stroke="#1A77B5" stroke-width="1.5" stroke-miterlimit="10" x1="343.3" y1="266.7" x2="333.1" y2="266.7"/>
				<g>
					<polygon fill="#1A77B5" points="338.1,260.6 339.1,261.7 333.7,266.7 339.1,271.8 338.1,272.9 331.5,266.7 					"/>
				</g>
			</g>
		</g>
	</g>
	<line fill="none" stroke="#1A77B5" stroke-width="1.5" stroke-miterlimit="10" x1="343.7" y1="267.4" x2="343.7" y2="28.7"/>
	<line fill="none" stroke="#1A77B5" stroke-width="1.5" stroke-miterlimit="10" x1="687.3" y1="212.6" x2="687.3" y2="28.8"/>
	<line fill="none" stroke="#1A77B5" stroke-width="1.5" stroke-miterlimit="10" x1="531.5" y1="211.7" x2="688.1" y2="211.7"/>
	<g>
		<g>
			<g>
				<line fill="none" stroke="#1A77B5" stroke-width="1.5" stroke-miterlimit="10" x1="532.4" y1="211.1" x2="532.4" y2="227.6"/>
				<g>
					<polygon fill="#1A77B5" points="526.2,222.6 527.3,221.6 532.4,227 537.4,221.6 538.5,222.6 532.4,229.2 					"/>
				</g>
			</g>
		</g>
	</g>
	<g>
		<g>
			<line fill="none" stroke="#1A77B5" stroke-width="1.5" stroke-miterlimit="10" x1="486.9" y1="255.3" x2="436.9" y2="255.3"/>
			<g>
				<polygon fill="#1A77B5" points="482,249.1 480.9,250.2 486.4,255.3 480.9,260.3 482,261.4 488.6,255.3 				"/>
			</g>
		</g>
	</g>
	<line fill="none" stroke="#1A77B5" stroke-width="1.5" stroke-miterlimit="10" x1="436.9" y1="345.8" x2="436.9" y2="254.6"/>
	<g>
		<g>
			<g>
				<g>
					<line fill="none" stroke="#1A77B5" stroke-width="1.5" stroke-miterlimit="10" x1="407.9" y1="448.3" x2="374.2" y2="448.3"/>
					<g>
						<polygon fill="#1A77B5" points="402.9,442.2 401.9,443.3 407.3,448.3 401.9,453.4 402.9,454.5 409.5,448.3 						"/>
					</g>
				</g>
			</g>
		</g>
		<g>
			<g>
				<line fill="none" stroke="#1A77B5" stroke-width="1.5" stroke-miterlimit="10" x1="375" y1="399.7" x2="375" y2="448.3"/>
				<g>
					<polygon fill="#1A77B5" points="368.8,404.7 369.9,405.7 375,400.3 380,405.7 381.1,404.7 375,398.1 					"/>
				</g>
			</g>
		</g>
	</g>
	<g>
		<g>
			<g>
				<line fill="#808285" x1="436.7" y1="418.3" x2="436.7" y2="374.2"/>
				<g>
					<line fill="none" stroke="#EEC11B" stroke-width="1.5" stroke-miterlimit="10" x1="436.7" y1="416.7" x2="436.7" y2="374.2"/>
					<g>
						<polygon fill="#EEC11B" points="442.8,411.7 441.7,410.7 436.7,416.1 431.7,410.7 430.6,411.7 436.7,418.3 						"/>
					</g>
				</g>
			</g>
		</g>
		<g>
			<line fill="#808285" x1="486.9" y1="374.8" x2="436.7" y2="374.8"/>
			<g>
				<line fill="none" stroke="#EEC11B" stroke-width="1.5" stroke-miterlimit="10" x1="485.3" y1="374.8" x2="436.7" y2="374.8"/>
				<g>
					<polygon fill="#EEC11B" points="480.3,368.7 479.3,369.8 484.7,374.8 479.3,379.8 480.3,380.9 486.9,374.8 					"/>
				</g>
			</g>
		</g>
	</g>
	<g>
		<g>
			<line fill="none" stroke="#1A77B5" stroke-width="1.5" stroke-miterlimit="10" x1="518.2" y1="502.3" x2="360" y2="502.3"/>
		</g>
		<g>
			<g>
				<line fill="none" stroke="#1A77B5" stroke-width="1.5" stroke-miterlimit="10" x1="360.9" y1="399.7" x2="360.9" y2="502.3"/>
				<g>
					<polygon fill="#1A77B5" points="354.7,404.7 355.8,405.7 360.9,400.3 365.9,405.7 367,404.7 360.9,398.1 					"/>
				</g>
			</g>
		</g>
		<g>
			<g>
				<line fill="none" stroke="#1A77B5" stroke-width="1.5" stroke-miterlimit="10" x1="518" y1="488.1" x2="518" y2="502.6"/>
				<g>
					<polygon fill="#1A77B5" points="511.9,493.1 513,494.1 518,488.7 523,494.1 524.1,493.1 518,486.5 					"/>
				</g>
			</g>
		</g>
	</g>
	<g>
		<g>
			<line fill="none" stroke="#1A77B5" stroke-width="1.5" stroke-miterlimit="10" x1="675.7" y1="514.8" x2="347.3" y2="514.8"/>
		</g>
		<g>
			<g>
				<line fill="none" stroke="#1A77B5" stroke-width="1.5" stroke-miterlimit="10" x1="347.3" y1="399.7" x2="347.3" y2="515.5"/>
				<g>
					<polygon fill="#1A77B5" points="341.2,404.7 342.3,405.7 347.3,400.3 352.4,405.7 353.5,404.7 347.3,398.1 					"/>
				</g>
			</g>
		</g>
		<g>
			<g>
				<line fill="none" stroke="#1A77B5" stroke-width="1.5" stroke-miterlimit="10" x1="675.9" y1="496.2" x2="675.9" y2="514.8"/>
				<g>
					<polygon fill="#1A77B5" points="669.7,501.2 670.8,502.2 675.9,496.8 680.9,502.2 682,501.2 675.9,494.6 					"/>
				</g>
			</g>
		</g>
	</g>
	<g>
		<line fill="#808285" x1="517.8" y1="199.6" x2="517.8" y2="226.1"/>
		<g>
			<line fill="none" stroke="#EEC11B" stroke-width="1.5" stroke-miterlimit="10" x1="517.8" y1="201.2" x2="517.8" y2="224.4"/>
			<g>
				<polygon fill="#EEC11B" points="511.6,206.2 512.7,207.2 517.8,201.8 522.8,207.2 523.9,206.2 517.8,199.6 				"/>
			</g>
			<g>
				<polygon fill="#EEC11B" points="511.6,219.5 512.7,218.5 517.8,223.9 522.8,218.5 523.9,219.5 517.8,226.1 				"/>
			</g>
		</g>
	</g>
	<g>
		<line fill="#808285" x1="517.8" y1="299.2" x2="517.8" y2="325.3"/>
		<g>
			<line fill="none" stroke="#EEC11B" stroke-width="1.5" stroke-miterlimit="10" x1="517.8" y1="300.8" x2="517.8" y2="323.6"/>
			<g>
				<polygon fill="#EEC11B" points="511.6,305.8 512.7,306.8 517.8,301.4 522.8,306.8 523.9,305.8 517.8,299.2 				"/>
			</g>
			<g>
				<polygon fill="#EEC11B" points="511.6,318.7 512.7,317.6 517.8,323 522.8,317.6 523.9,318.7 517.8,325.3 				"/>
			</g>
		</g>
	</g>
	<g>
		<g>
			<line fill="none" stroke="#1A77B5" stroke-width="1.5" stroke-miterlimit="10" x1="517.8" y1="398.4" x2="517.8" y2="421.2"/>
			<g>
				<polygon fill="#1A77B5" points="511.6,403.4 512.7,404.4 517.8,399 522.8,404.4 523.9,403.4 517.8,396.8 				"/>
			</g>
			<g>
				<polygon fill="#1A77B5" points="511.6,416.2 512.7,415.2 517.8,420.6 522.8,415.2 523.9,416.2 517.8,422.8 				"/>
			</g>
		</g>
	</g>
	<g>
		<g>
			<g>
				<line fill="none" stroke="#1A77B5" stroke-width="1.5" stroke-miterlimit="10" x1="598.1" y1="416.7" x2="598.1" y2="361.7"/>
				<g>
					<polygon fill="#1A77B5" points="604.3,411.7 603.2,410.7 598.1,416.1 593.1,410.7 592,411.7 598.1,418.3 					"/>
				</g>
			</g>
		</g>
	</g>
	<g>
		<g>
			<line fill="none" stroke="#1A77B5" stroke-width="1.5" stroke-miterlimit="10" x1="544.6" y1="362.4" x2="598" y2="362.4"/>
			<g>
				<polygon fill="#1A77B5" points="549.5,368.5 550.6,367.4 545.2,362.4 550.6,357.4 549.5,356.3 542.9,362.4 				"/>
			</g>
		</g>
	</g>
	<g>
		<g>
			<g>
				<g>
					<line fill="none" stroke="#1A77B5" stroke-width="1.5" stroke-miterlimit="10" x1="697.3" y1="261.8" x2="675.7" y2="261.8"/>
					<g>
						<polygon fill="#1A77B5" points="692.3,255.6 691.3,256.7 696.7,261.8 691.3,266.8 692.3,267.9 698.9,261.8 						"/>
					</g>
				</g>
			</g>
		</g>
		<g>
			<g>
				<line fill="none" stroke="#1A77B5" stroke-width="1.5" stroke-miterlimit="10" x1="675.7" y1="417.5" x2="675.7" y2="261.1"/>
				<g>
					<polygon fill="#1A77B5" points="681.8,412.5 680.7,411.5 675.7,416.9 670.6,411.5 669.5,412.5 675.7,419.1 					"/>
				</g>
			</g>
		</g>
	</g>
	<g>
		<g>
			<line fill="none" stroke="#1A77B5" stroke-width="1.5" stroke-miterlimit="10" x1="544.6" y1="346.2" x2="598.9" y2="346.2"/>
			<g>
				<polygon fill="#1A77B5" points="549.5,352.3 550.6,351.2 545.2,346.2 550.6,341.1 549.5,340 542.9,346.2 				"/>
			</g>
		</g>
	</g>
	<g>
		<g>
			<line fill="none" stroke="#1A77B5" stroke-width="1.5" stroke-miterlimit="10" x1="698.1" y1="246.3" x2="598.1" y2="246.3"/>
			<g>
				<polygon fill="#1A77B5" points="693.1,240.2 692.1,241.3 697.5,246.3 692.1,251.4 693.1,252.5 699.7,246.3 				"/>
			</g>
		</g>
	</g>
	<line fill="none" stroke="#1A77B5" stroke-width="1.5" stroke-miterlimit="10" x1="598.1" y1="347" x2="598.1" y2="245.5"/>
	<g id="iot_security">
		<circle fill="#E62133" cx="308.2" cy="574.6" r="16.4"/>
		<g>
			<path fill="#FFFFFF" d="M313.9,569.9c0-3.1-2.6-5.7-5.7-5.7c-3.1,0-5.7,2.6-5.7,5.7v2.6c-1.2,1.3-1.9,3.1-1.9,5
				c0,4.2,3.4,7.6,7.6,7.6c4.2,0,7.6-3.4,7.6-7.6c0-1.9-0.7-3.7-1.9-5V569.9z M304.5,569.9c0-2,1.8-3.8,3.8-3.8s3.8,1.8,3.8,3.8v1
				c-1.1-0.6-2.4-1-3.8-1c-1.4,0-2.7,0.4-3.8,1V569.9z M306.8,581.6l-3.5-3.5l1.3-1.3l2.2,2.2l5-5l1.3,1.3L306.8,581.6z"/>
		</g>
	</g>
	<g>
		<text transform="matrix(1 0 0 1 329.4665 579.3503)" fill="#4378BB" font-family="'HelveticaNeue-Bold'" font-size="9px">SECURITY</text>
	</g>
	<g>
		<g>
			<g>
				<line fill="none" stroke="#1A77B5" stroke-width="1.5" stroke-miterlimit="10" x1="298.6" y1="250.4" x2="298.6" y2="178"/>
				<g>
					<polygon fill="#1A77B5" points="304.7,245.4 303.6,244.4 298.6,249.8 293.5,244.4 292.4,245.4 298.6,252 					"/>
				</g>
			</g>
		</g>
	</g>
	<g>
		<g>
			<line fill="none" stroke="#1A77B5" stroke-width="1.5" stroke-miterlimit="10" x1="282.2" y1="178.8" x2="299.3" y2="178.8"/>
			<g>
				<polygon fill="#1A77B5" points="287.2,184.9 288.2,183.8 282.8,178.8 288.2,173.7 287.2,172.6 280.6,178.8 				"/>
			</g>
		</g>
	</g>
	<g>
		<line fill="#808285" x1="58.2" y1="197" x2="58.2" y2="355.4"/>
		<g>
			<line fill="none" stroke="#EEC11B" stroke-width="1.5" stroke-miterlimit="10" x1="58.2" y1="198.6" x2="58.2" y2="353.8"/>
			<g>
				<polygon fill="#EEC11B" points="52,203.6 53.1,204.6 58.2,199.2 63.2,204.6 64.3,203.6 58.2,197 				"/>
			</g>
			<g>
				<polygon fill="#EEC11B" points="52,348.8 53.1,347.8 58.2,353.2 63.2,347.8 64.3,348.8 58.2,355.4 				"/>
			</g>
		</g>
	</g>
	<g id="iot_visualization" >
		<circle fill="#EEC11B" cx="436.3" cy="447.9" r="23"/>
		<path fill="#FFFFFF" d="M436.3,442.5c-3.1,0-5.6,2.5-5.6,5.6c0,3.1,2.5,5.6,5.6,5.6c3.1,0,5.6-2.5,5.6-5.6
			C441.9,445,439.4,442.5,436.3,442.5z M436.3,450c-1,0-1.9-0.8-1.9-1.9c0-1,0.8-1.9,1.9-1.9c1,0,1.9,0.8,1.9,1.9
			C438.2,449.1,437.4,450,436.3,450z"/>
		<path fill="#FFFFFF" d="M436.3,439.7c-6.3,0-11,3.4-14,8.4c2.9,5,7.7,8.4,14,8.4s11-3.4,14-8.4
			C447.4,443.1,442.6,439.7,436.3,439.7z M436.3,455.5c-5.3,0-9.9-2.6-12.9-7.4c3-4.8,7.5-7.4,12.9-7.4c5.3,0,9.9,2.6,12.9,7.4
			C446.2,452.9,441.7,455.5,436.3,455.5z"/>
	</g>
	<g id="iot_processmgmt">
		<circle fill="#03B29F" cx="598.1" cy="448.3" r="23.1"/>
		<g>
			<g>
				<path fill="#FFFFFF" d="M604.2,451.2c-2,0-3.6,1.5-3.8,3.4h-4.6c-0.1-0.8-0.4-1.5-0.8-2l6.8-6.8c0.7,0.5,1.5,0.9,2.4,0.9
					c2.1,0,3.8-1.7,3.8-3.8c0-2.1-1.7-3.8-3.8-3.8c-2,0-3.6,1.5-3.8,3.4h-4.6c-0.2-1.9-1.8-3.4-3.8-3.4c-2.1,0-3.8,1.7-3.8,3.8
					c0,2.1,1.7,3.8,3.8,3.8c2,0,3.6-1.5,3.8-3.4h4.6c0.1,0.8,0.4,1.5,0.8,2l-6.8,6.8c-0.7-0.5-1.5-0.9-2.4-0.9
					c-2.1,0-3.8,1.7-3.8,3.8c0,2.1,1.7,3.8,3.8,3.8c2,0,3.6-1.5,3.8-3.4h4.6c0.2,1.9,1.8,3.4,3.8,3.4c2.1,0,3.8-1.7,3.8-3.8
					C608,452.9,606.3,451.2,604.2,451.2z M592.1,445.9c-1.7,0-3-1.4-3-3s1.4-3,3-3s3,1.4,3,3S593.8,445.9,592.1,445.9z M601.2,442.9
					c0-1.7,1.4-3,3-3c1.7,0,3,1.4,3,3s-1.4,3-3,3C602.5,445.9,601.2,444.5,601.2,442.9z M592.1,458c-1.7,0-3-1.4-3-3
					c0-1.7,1.4-3,3-3s3,1.4,3,3C595.1,456.6,593.8,458,592.1,458z"/>
			</g>
		</g>
	</g>
	<g id="iot_applogic">
		<circle fill="#EEC11B" cx="517.8" cy="350.4" r="23.4"/>
		<g>
			<g>
				<path fill="#FFFFFF" d="M514.9,346.2c0-0.3,0-0.5-0.1-0.8l1.7-1.4l-1.4-2.3l-2,0.6c-0.5-0.4-1-0.7-1.6-1l-0.4-1.9h-2.7l-0.4,1.9
					c-0.6,0.2-1.1,0.5-1.6,1l-2-0.6l-1.4,2.3l1.7,1.4c0,0.3-0.1,0.5-0.1,0.8c0,0.3,0,0.5,0.1,0.8l-1.7,1.4l1.4,2.3l2-0.6
					c0.5,0.4,1,0.7,1.6,1l0.4,1.9h2.7l0.4-1.9c0.6-0.2,1.1-0.5,1.6-1l2,0.6l1.4-2.3l-1.7-1.4C514.8,346.7,514.9,346.4,514.9,346.2z
					 M515.9,348.5l-1,1.7l-1.6-0.5l-0.2-0.1l-0.2,0.2c-0.4,0.4-0.9,0.7-1.5,0.9l-0.2,0.1l-0.1,0.2l-0.4,1.6h-2l-0.4-1.6l-0.1-0.2
					l-0.2-0.1c-0.5-0.2-1-0.5-1.5-0.9l-0.2-0.2l-0.2,0.1l-1.6,0.5l-1-1.7l1.4-1.2l0.2-0.2l0-0.2c0-0.3-0.1-0.5-0.1-0.7
					c0-0.2,0-0.5,0.1-0.7l0-0.2l-0.2-0.2l-1.4-1.2l1-1.7l1.6,0.5l0.2,0.1l0.2-0.2c0.4-0.4,0.9-0.7,1.5-0.9l0.2-0.1l0.1-0.2l0.4-1.6h2
					l0.4,1.6l0.1,0.2l0.2,0.1c0.5,0.2,1,0.5,1.5,0.9l0.2,0.2l0.2-0.1l1.6-0.5l1,1.7l-1.4,1.2l-0.2,0.2l0,0.2c0,0.3,0.1,0.5,0.1,0.7
					c0,0.2,0,0.5-0.1,0.7l0,0.2l0.2,0.2L515.9,348.5z"/>
			</g>
			<g>
				<path fill="#FFFFFF" d="M509.7,343.4c-1.5,0-2.7,1.2-2.7,2.7s1.2,2.7,2.7,2.7c1.5,0,2.7-1.2,2.7-2.7S511.2,343.4,509.7,343.4z
					 M509.7,347.1c-0.5,0-0.9-0.4-0.9-0.9s0.4-0.9,0.9-0.9c0.5,0,0.9,0.4,0.9,0.9S510.1,347.1,509.7,347.1z"/>
			</g>
		</g>
		<g>
			<g>
				<path fill="#FFFFFF" d="M529.6,356.6c0.2-0.3,0.3-0.6,0.4-1l2.7-0.7l-0.3-3.4l-2.6-0.4c-0.3-0.7-0.8-1.4-1.3-2l0.6-2.4l-3.1-1.5
					l-1.6,1.9c-0.8-0.1-1.6,0-2.4,0.2l-1.9-1.9l-2.9,1.9l1.1,2.6c-0.2,0.3-0.4,0.6-0.5,0.9c-0.2,0.3-0.3,0.6-0.4,1l-2.7,0.7l0.3,3.4
					l2.6,0.4c0.3,0.7,0.8,1.4,1.3,2l-0.6,2.4l3.1,1.5l1.6-1.9c0.8,0.1,1.6,0,2.4-0.2l1.9,1.9l2.9-1.9l-1.1-2.6
					C529.3,357.3,529.5,357,529.6,356.6z M529.5,359.9l-2.1,1.4l-1.6-1.5l-0.2-0.2l-0.3,0.1c-0.7,0.2-1.5,0.2-2.2,0.2l-0.3,0
					l-0.2,0.2l-1.3,1.6l-2.3-1.1l0.5-2l0.1-0.3l-0.2-0.2c-0.5-0.5-0.9-1.2-1.2-1.8l-0.1-0.3l-0.3,0l-2.2-0.3l-0.2-2.5l2.2-0.6
					l0.3-0.1l0.1-0.3c0.1-0.3,0.2-0.6,0.3-0.9c0.1-0.3,0.3-0.5,0.5-0.8l0.2-0.3l-0.1-0.3l-0.9-2.1l2.1-1.4l1.6,1.5l0.2,0.2l0.3-0.1
					c0.7-0.2,1.5-0.2,2.2-0.2l0.3,0l0.2-0.2l1.3-1.6l2.3,1.1l-0.5,2l-0.1,0.3l0.2,0.2c0.5,0.5,0.9,1.2,1.2,1.8l0.1,0.3l0.3,0l2.2,0.3
					l0.2,2.5l-2.2,0.6l-0.3,0.1l-0.1,0.3c-0.1,0.3-0.2,0.6-0.3,0.9c-0.1,0.3-0.3,0.5-0.5,0.8l-0.2,0.3l0.1,0.3L529.5,359.9z"/>
			</g>
			<g>
				<path fill="#FFFFFF" d="M525.2,350.6c-1.7-0.8-3.8-0.1-4.7,1.6c-0.8,1.7-0.1,3.8,1.6,4.7c1.7,0.8,3.8,0.1,4.7-1.6
					C527.6,353.5,526.9,351.4,525.2,350.6z M523.1,354.7c-0.6-0.3-0.8-1-0.5-1.6c0.3-0.6,1-0.8,1.6-0.5c0.6,0.3,0.8,1,0.5,1.6
					C524.4,354.8,523.7,355,523.1,354.7z"/>
			</g>
		</g>
	</g>
	<g>
		<g>
			<line fill="none" stroke="#1A77B5" stroke-width="1.5" stroke-miterlimit="10" x1="162.7" y1="97.9" x2="162.7" y2="133.9"/>
			<g>
				<polygon fill="#1A77B5" points="156.5,102.8 157.6,103.9 162.7,98.4 167.7,103.9 168.8,102.8 162.7,96.2 				"/>
			</g>
			<g>
				<polygon fill="#1A77B5" points="156.5,128.9 157.6,127.9 162.7,133.3 167.7,127.9 168.8,128.9 162.7,135.5 				"/>
			</g>
		</g>
	</g>
	<g>
		<g>
			<g>
				<g>
					<line fill="none" stroke="#1A77B5" stroke-width="1.5" stroke-miterlimit="10" x1="313.8" y1="249.7" x2="313.8" y2="155.5"/>
					<g>
						<polygon fill="#1A77B5" points="319.9,244.8 318.8,243.7 313.8,249.2 308.8,243.7 307.7,244.8 313.8,251.4 						"/>
					</g>
				</g>
			</g>
		</g>
		<g>
			<g>
				<line fill="none" stroke="#1A77B5" stroke-width="1.5" stroke-miterlimit="10" x1="211.2" y1="155.5" x2="314.6" y2="155.5"/>
				<g>
					<polygon fill="#1A77B5" points="216.2,161.7 217.2,160.6 211.8,155.5 217.2,150.5 216.2,149.4 209.6,155.5 					"/>
				</g>
			</g>
		</g>
	</g>
	<g id="iot_device">
		<circle fill="#EEC11B" cx="120.5" cy="138" r="12.5"/>
		<rect x="118.9" y="139" fill="none" stroke="#EEC11B" stroke-width="1.5" stroke-miterlimit="10" width="86.2" height="73.8"/>
		<g>
			<path fill="#FFFFFF" d="M123.7,147.4h-6.3c-1.2,0-2.2-1-2.2-2.2v-14.4c0-1.2,1-2.2,2.2-2.2h6.3c1.2,0,2.2,1,2.2,2.2v14.4
				C125.9,146.4,124.9,147.4,123.7,147.4z M117.4,129.2c-0.9,0-1.6,0.7-1.6,1.6v14.4c0,0.9,0.7,1.6,1.6,1.6h6.3
				c0.9,0,1.6-0.7,1.6-1.6v-14.4c0-0.9-0.7-1.6-1.6-1.6L117.4,129.2L117.4,129.2z"/>
			<rect x="116.6" y="130.8" fill="#FFFFFF" width="7.9" height="13.1"/>
			<ellipse fill="#FFFFFF" cx="120.6" cy="145.5" rx="0.8" ry="0.8"/>
			<rect x="119.5" y="129.8" fill="#FFFFFF" width="2.1" height="0.4"/>
		</g>
		<g>
			<rect x="131" y="143.5" fill="none" width="71.7" height="10.9"/>
			<text transform="matrix(1 0 0 1 135.4662 149.166)" fill="#4378BB" font-family="'HelveticaNeue-Bold'" font-size="8px">Sensor/Actuator</text>
		</g>
		<g>
			<rect x="133" y="157.5" fill="none" width="59.3" height="8.1"/>
			<text transform="matrix(1 0 0 1 151.4074 163.186)" fill="#4378BB" font-family="'HelveticaNeue-Bold'" font-size="8px">Agent</text>
		</g>
		<g>
			<rect x="132.7" y="172.8" fill="none" width="60.1" height="10.1"/>
			<text transform="matrix(1 0 0 1 144.8163 178.5068)" fill="#4378BB" font-family="'HelveticaNeue-Bold'" font-size="8px">Firmware</text>
		</g>
		<g>
			<rect x="120.2" y="187.3" fill="none" width="84.4" height="7.6"/>
			<text transform="matrix(1 0 0 1 123.1144 193.0102)" fill="#4378BB" font-family="'HelveticaNeue-Bold'" font-size="8px">Network Connection</text>
		</g>
		<g>
			<rect x="128.9" y="201.9" fill="none" width="67.8" height="8.9"/>
			<text transform="matrix(1 0 0 1 135.697 207.5639)" fill="#4378BB" font-family="'HelveticaNeue-Bold'" font-size="8px">User Interface</text>
		</g>
		<line fill="none" stroke="#EEC11B" stroke-width="0.5" stroke-miterlimit="10" x1="118.9" y1="168.5" x2="205.1" y2="168.5"/>
		<line fill="none" stroke="#EEC11B" stroke-width="0.5" stroke-miterlimit="10" x1="118.3" y1="183.2" x2="205.3" y2="183.2"/>
		<line fill="none" stroke="#EEC11B" stroke-width="0.5" stroke-miterlimit="10" x1="119.8" y1="154.1" x2="205.8" y2="154.1"/>
		<line fill="none" stroke="#EEC11B" stroke-width="0.5" stroke-miterlimit="10" x1="118.5" y1="197.6" x2="205.4" y2="197.6"/>
	</g>
	<g>
		<line fill="#808285" x1="15.6" y1="591.1" x2="41.9" y2="591.1"/>
		<g>
			<line fill="none" stroke="#EEC11B" stroke-width="0.7544" stroke-miterlimit="10" x1="16.5" y1="591.1" x2="41" y2="591.1"/>
			<g>
				<path fill="#EEC11B" d="M21.7,594.7c0.1-0.2,0.1-0.4-0.1-0.5l-4.9-3.1l4.9-3.1c0.2-0.1,0.2-0.3,0.1-0.5
					c-0.1-0.2-0.3-0.2-0.5-0.1l-5.4,3.4c-0.1,0.1-0.2,0.2-0.2,0.3c0,0.1,0.1,0.2,0.2,0.3l5.4,3.4c0.1,0,0.1,0.1,0.2,0.1
					C21.5,594.9,21.6,594.9,21.7,594.7z"/>
			</g>
			<g>
				<path fill="#EEC11B" d="M35.8,594.7c-0.1-0.2-0.1-0.4,0.1-0.5l4.9-3.1l-4.9-3.1c-0.2-0.1-0.2-0.3-0.1-0.5
					c0.1-0.2,0.3-0.2,0.5-0.1l5.4,3.4c0.1,0.1,0.2,0.2,0.2,0.3c0,0.1-0.1,0.2-0.2,0.3l-5.4,3.4c-0.1,0-0.1,0.1-0.2,0.1
					C36,594.9,35.9,594.9,35.8,594.7z"/>
			</g>
		</g>
	</g>
	<g>
		<rect x="28.9" y="476" fill="none" width="93.1" height="5.8"/>
		<text transform="matrix(1 0 0 1 28.8603 481.759)" fill="#4378BB" font-family="'HelveticaNeue-Bold'" font-size="8px">Application</text>
	</g>
	<rect x="14.9" y="474.9" fill="#EEC11B" width="9.6" height="6.2"/>
	<g>
		<rect x="28.9" y="487.2" fill="none" width="122.2" height="8.5"/>
		<text transform="matrix(1 0 0 1 28.8603 492.9184)" fill="#4378BB" font-family="'HelveticaNeue-Bold'" font-size="8px">Infrastructure services</text>
	</g>
	<rect x="14.8" y="486.3" fill="#8FC73F" width="9.6" height="6.2"/>
	<g>
		<rect x="28.9" y="498.6" fill="none" width="131.9" height="8.5"/>
		<text transform="matrix(1 0 0 1 28.8603 504.3181)" fill="#4378BB" font-family="'HelveticaNeue-Bold'" font-size="8px">Data oriented service</text>
	</g>
	<rect x="15.1" y="497.9" fill="#335D80" width="9.6" height="6.2"/>
	<g>
		<rect x="29.1" y="510" fill="none" width="86.3" height="8.5"/>
		<text transform="matrix(1 0 0 1 29.1259 515.6704)" fill="#4378BB" font-family="'HelveticaNeue-Bold'" font-size="8px">Analytics</text>
	</g>
	<rect x="14.9" y="508.9" fill="#734299" width="9.6" height="6.2"/>
	<g>
		<text transform="matrix(1 0 0 1 15.1337 468.218)" fill="#4378BB" font-family="'HelveticaNeue-Bold'" font-size="8px">LEGEND</text>
	</g>
	<g>
		<text transform="matrix(1 0 0 1 15.1337 567.9822)" fill="#4378BB" font-family="'HelveticaNeue-Bold'" font-size="8px">FLOWS</text>
	</g>
	<g>
		<rect x="29.1" y="539.2" fill="none" width="79.6" height="16.3"/>
		<text transform="matrix(1 0 0 1 29.1262 544.9177)"><tspan x="0" y="0" fill="#4378BB" font-family="'HelveticaNeue-Bold'" font-size="8px">Scalable</tspan><tspan x="0" y="9.6" fill="#4378BB" font-family="'HelveticaNeue-Bold'" font-size="8px">infrastructure</tspan></text>
	</g>
	<g>
		<path fill="#E6E6E5" d="M22.1,537h-5c-1.1,0-2.1,0.9-2.1,2.1v5.5c0,1.1,0.9,2.1,2.1,2.1h5c1.1,0,2.1-0.9,2.1-2.1v-5.5
			C24.2,537.9,23.3,537,22.1,537z"/>
		<g>
			<g>
				<line fill="none" stroke="#989898" stroke-width="0.1938" stroke-miterlimit="10" x1="17.9" y1="543.6" x2="21.3" y2="540"/>
				<g>
					<polygon fill="#989898" points="18.7,543.6 18.7,543.5 18,543.5 18,542.7 17.8,542.7 17.8,543.7 					"/>
				</g>
				<g>
					<polygon fill="#989898" points="21.4,540.8 21.2,540.8 21.2,540.1 20.5,540.1 20.4,540 21.4,539.9 					"/>
				</g>
			</g>
		</g>
		<polyline fill="none" stroke="#989898" stroke-width="0.1938" stroke-miterlimit="10" points="18.2,545.2 16.5,545.2 16.5,543.4
					"/>
		<polyline fill="none" stroke="#989898" stroke-width="0.1938" stroke-miterlimit="10" points="21.4,538.5 23.2,538.5 23.2,540.4
					"/>
	</g>
	<g>
		<rect x="29.1" y="528.1" fill="none" width="86.3" height="8.5"/>
		<text transform="matrix(1 0 0 1 29.1259 533.8062)" fill="#4378BB" font-family="'HelveticaNeue-Bold'" font-size="8px">Management</text>
	</g>
	<rect x="14.9" y="527.7" fill="#03B29F" width="9.6" height="6.2"/>
	<g>
		<g>
			<line fill="none" stroke="#1A77B5" stroke-width="0.7544" stroke-miterlimit="10" x1="17.2" y1="577" x2="41.6" y2="577"/>
			<g>
				<path fill="#1A77B5" d="M22.3,580.6c0.1-0.2,0.1-0.4-0.1-0.5l-4.9-3.1l4.9-3.1c0.2-0.1,0.2-0.3,0.1-0.5
					c-0.1-0.2-0.3-0.2-0.5-0.1l-5.4,3.4c-0.1,0.1-0.2,0.2-0.2,0.3c0,0.1,0.1,0.2,0.2,0.3l5.4,3.4c0.1,0,0.1,0.1,0.2,0.1
					C22.1,580.8,22.3,580.7,22.3,580.6z"/>
			</g>
			<g>
				<path fill="#1A77B5" d="M36.5,580.6c-0.1-0.2-0.1-0.4,0.1-0.5l4.9-3.1l-4.9-3.1c-0.2-0.1-0.2-0.3-0.1-0.5
					c0.1-0.2,0.3-0.2,0.5-0.1l5.4,3.4c0.1,0.1,0.2,0.2,0.2,0.3c0,0.1-0.1,0.2-0.2,0.3l-5.4,3.4c-0.1,0-0.1,0.1-0.2,0.1
					C36.7,580.8,36.6,580.7,36.5,580.6z"/>
			</g>
		</g>
	</g>
	<g>
		<g>
			<rect x="45.2" y="574.4" fill="none" width="63.1" height="8.1"/>
			<text transform="matrix(1 0 0 1 45.1926 580.1467)" fill="#4378BB" font-family="'HelveticaNeue-Bold'" font-size="8px">Data &amp; Control</text>
		</g>
	</g>
	<g>
		<g>
			<rect x="44.9" y="588.5" fill="none" width="64.1" height="8.1"/>
			<text transform="matrix(1 0 0 1 44.9162 594.1777)" fill="#4378BB" font-family="'HelveticaNeue-Bold'" font-size="8px">User</text>
		</g>
	</g>
	<g>
		<rect x="29.2" y="519.5" fill="none" width="86.3" height="8.5"/>
		<text transform="matrix(1 0 0 1 29.1516 525.209)" fill="#4378BB" font-family="'HelveticaNeue-Bold'" font-size="8px">Security</text>
	</g>
	<rect x="14.9" y="518.4" fill="#E62133" width="9.6" height="6.2"/>
	<g>
		<line fill="#808285" x1="384.4" y1="329.8" x2="428.4" y2="329.8"/>
		<g>
			<line fill="none" stroke="#EEC11B" stroke-width="1.5" stroke-miterlimit="10" x1="386" y1="329.8" x2="428.4" y2="329.8"/>
			<g>
				<polygon fill="#EEC11B" points="391,336 392,334.9 386.6,329.8 392,324.8 391,323.7 384.4,329.8 				"/>
			</g>
		</g>
	</g>
	<g>
		<line fill="#808285" x1="488.6" y1="241.1" x2="427.7" y2="241.1"/>
		<g>
			<line fill="none" stroke="#EEC11B" stroke-width="1.5" stroke-miterlimit="10" x1="486.9" y1="241.1" x2="427.7" y2="241.1"/>
			<g>
				<polygon fill="#EEC11B" points="482,234.9 480.9,236 486.4,241.1 480.9,246.1 482,247.2 488.6,241.1 				"/>
			</g>
		</g>
	</g>
	<line fill="#808285" stroke="#EEC11B" stroke-width="1.5" stroke-miterlimit="10" x1="428.4" y1="330.7" x2="428.4" y2="241.1"/>
	<g>
		<line fill="#808285" x1="305.8" y1="361.4" x2="331.5" y2="361.4"/>
		<g>
			<line fill="none" stroke="#EEC11B" stroke-width="1.5" stroke-miterlimit="10" x1="305.8" y1="361.4" x2="329.9" y2="361.4"/>
			<g>
				<polygon fill="#EEC11B" points="324.9,367.6 323.9,366.5 329.3,361.4 323.9,356.4 324.9,355.3 331.5,361.4 				"/>
			</g>
		</g>
	</g>
	<g>
		<line fill="#808285" x1="306.7" y1="324.2" x2="306.7" y2="361.4"/>
		<g>
			<line fill="none" stroke="#EEC11B" stroke-width="1.5" stroke-miterlimit="10" x1="306.7" y1="325.8" x2="306.7" y2="361.4"/>
			<g>
				<polygon fill="#EEC11B" points="300.5,330.8 301.6,331.8 306.7,326.4 311.7,331.8 312.8,330.8 306.7,324.2 				"/>
			</g>
		</g>
	</g>
	<g>
		<rect x="15" y="11" fill="none" width="96.7" height="12.7"/>
		<text transform="matrix(1 0 0 1 14.9973 17.4265)" fill="#4378BB" font-family="'HelveticaNeue-Bold'" font-size="9px">USER LAYER</text>
	</g>
	<g>
		<rect x="107.8" y="11" fill="none" width="111.1" height="12.7"/>
		<text transform="matrix(1 0 0 1 107.7717 17.4265)" fill="#4378BB" font-family="'HelveticaNeue-Bold'" font-size="9px">PROXIMITY NETWORK</text>
	</g>
	<g>
		<rect x="221.7" y="11" fill="none" width="90.5" height="12.7"/>
		<text transform="matrix(1 0 0 1 221.7297 17.4265)" fill="#4378BB" font-family="'HelveticaNeue-Bold'" font-size="9px">PUBLIC NETWORK</text>
	</g>
	<g>
		<rect x="314.8" y="11" fill="none" width="111.1" height="12.7"/>
		<text transform="matrix(1 0 0 1 314.8386 17.4265)" fill="#4378BB" font-family="'HelveticaNeue-Bold'" font-size="9px">PROVIDER CLOUD</text>
	</g>
	<rect x="9" y="3.9" fill="none" stroke="#4378BB" stroke-width="2" stroke-miterlimit="10" width="860.3" height="599.5"/>
	<g>
		<rect x="738.5" y="11" fill="none" width="125.8" height="12.7"/>
		<text transform="matrix(1 0 0 1 738.5441 17.4265)" fill="#4378BB" font-family="'HelveticaNeue-Bold'" font-size="9px">ENTERPRISE NETWORK</text>
	</g>
	<line fill="none" stroke="#4378BB" stroke-width="0.5" stroke-miterlimit="10" x1="105" y1="4.7" x2="105" y2="146.6"/>
	<line fill="none" stroke="#4378BB" stroke-width="0.5" stroke-miterlimit="10" x1="218.9" y1="4.7" x2="218.9" y2="143"/>
	<line fill="none" stroke="#4378BB" stroke-width="0.5" stroke-miterlimit="10" x1="306.7" y1="4.7" x2="306.7" y2="147.1"/>
	<line fill="none" stroke="#4378BB" stroke-width="0.5" stroke-miterlimit="10" x1="105" y1="171.3" x2="105" y2="369.4"/>
	<line fill="none" stroke="#4378BB" stroke-width="0.5" stroke-miterlimit="10" x1="105" y1="403.5" x2="105" y2="482.2"/>
	<line fill="none" stroke="#4378BB" stroke-width="0.5" stroke-miterlimit="10" x1="105" y1="512" x2="105" y2="546.5"/>
	<line fill="none" stroke="#4378BB" stroke-width="0.5" stroke-miterlimit="10" x1="219.7" y1="403.5" x2="219.7" y2="546.7"/>
	<line fill="none" stroke="#4378BB" stroke-width="0.5" stroke-miterlimit="10" x1="306.7" y1="369.7" x2="306.7" y2="546.7"/>
	<line fill="none" stroke="#4378BB" stroke-width="0.5" stroke-miterlimit="10" x1="732.6" y1="4.7" x2="732.6" y2="141.5"/>
	<line fill="none" stroke="#4378BB" stroke-width="0.5" stroke-miterlimit="10" x1="732.6" y1="359.6" x2="732.6" y2="546.7"/>
	<line fill="none" stroke="#4378BB" stroke-width="0.5" stroke-miterlimit="10" x1="8.2" y1="456.5" x2="105.2" y2="456.5"/>
	<g id="iot_physicalentity">
		<circle fill="#EEC11B" cx="163.6" cy="52.1" r="23"/>
		<circle fill="#FFFFFF" cx="163.6" cy="52.1" r="1.4"/>
		<path fill="#FFFFFF" d="M163.6,56.7c-2.5,0-4.6-2.1-4.6-4.6c0-2.5,2.1-4.6,4.6-4.6c2.5,0,4.6,2.1,4.6,4.6
			C168.1,54.7,166.1,56.7,163.6,56.7z M163.6,48.8c-1.8,0-3.3,1.5-3.3,3.3s1.5,3.3,3.3,3.3c1.8,0,3.3-1.5,3.3-3.3
			S165.4,48.8,163.6,48.8z"/>
		<path fill="#FFFFFF" d="M163.6,59.9c-4.3,0-7.7-3.5-7.7-7.7s3.5-7.7,7.7-7.7c4.3,0,7.7,3.5,7.7,7.7S167.8,59.9,163.6,59.9z
			 M163.6,45.7c-3.6,0-6.5,2.9-6.5,6.5c0,3.6,2.9,6.5,6.5,6.5c3.6,0,6.5-2.9,6.5-6.5C170,48.6,167.1,45.7,163.6,45.7z"/>
		<path fill="#FFFFFF" d="M163.6,63c-6,0-10.9-4.9-10.9-10.9c0-6,4.9-10.9,10.9-10.9c6,0,10.9,4.9,10.9,10.9
			C174.4,58.1,169.6,63,163.6,63z M163.6,42.5c-5.3,0-9.6,4.3-9.6,9.6c0,5.3,4.3,9.6,9.6,9.6c5.3,0,9.6-4.3,9.6-9.6
			C173.1,46.8,168.8,42.5,163.6,42.5z"/>
		<path fill="#FFFFFF" d="M163.6,65.9c-7.6,0-13.7-6.2-13.7-13.7c0-7.6,6.2-13.7,13.7-13.7c7.6,0,13.7,6.2,13.7,13.7
			C177.3,59.7,171.1,65.9,163.6,65.9z M163.6,39.7c-6.9,0-12.5,5.6-12.5,12.5s5.6,12.5,12.5,12.5c6.9,0,12.5-5.6,12.5-12.5
			S170.4,39.7,163.6,39.7z"/>
		<path fill="#FFFFFF" d="M163.6,68.6c-9.1,0-16.5-7.4-16.5-16.5s7.4-16.5,16.5-16.5c9.1,0,16.5,7.4,16.5,16.5
			S172.7,68.6,163.6,68.6z M163.6,36.9c-8.4,0-15.2,6.8-15.2,15.2s6.8,15.2,15.2,15.2s15.2-6.8,15.2-15.2S172,36.9,163.6,36.9z"/>
	</g>
	<g id="iot_apimgmt">
		<circle fill="#02B19D" cx="517.8" cy="252" r="25.2"/>
		<g>
			<g>
				<rect x="509" y="264.7" fill="#FFFFFF" width="18.3" height="1.1"/>
				<path fill="#FFFFFF" d="M527.1,248c-0.4-4.9-4.5-8.6-9.3-8.6c-4.6,0-8.5,3.3-9.2,7.9l-1.1-0.2c0.8-5.1,5.1-8.8,10.3-8.8
					c5.4,0,10,4.2,10.4,9.7L527.1,248z"/>
				<path fill="#FFFFFF" d="M509,265.8c-5.3,0-9.6-4.3-9.6-9.6c0-5.3,4.3-9.6,9.6-9.6c2.3,0,4.6,0.9,6.3,2.4l-0.7,0.8
					c-1.6-1.4-3.5-2.1-5.6-2.1c-4.7,0-8.5,3.8-8.5,8.5c0,4.7,3.8,8.5,8.5,8.5h0.2l0,1.1h-0.1C509.1,265.8,509,265.8,509,265.8z"/>
				<path fill="#FFFFFF" d="M527,265.8L527,265.8l0-1.1h0.1c4.4,0,8.1-3.6,8.1-8.1c0-4.4-3.5-8-7.9-8.1l0-1.1c4.9,0.1,9,4.2,9,9.2
					C536.1,261.7,532,265.8,527,265.8z"/>
			</g>
			<circle fill="#FFFFFF" cx="507.4" cy="253.4" r="3.3"/>
			<circle fill="#FFFFFF" cx="527.3" cy="257.2" r="5.5"/>
			<circle fill="#FFFFFF" cx="520.6" cy="247.9" r="3.4"/>
			<circle fill="#FFFFFF" cx="517.1" cy="259.3" r="3.4"/>
			<circle fill="#FFFFFF" cx="514.5" cy="244.1" r="1.8"/>
			<circle fill="#FFFFFF" cx="509" cy="260.3" r="1.8"/>
			<circle fill="#FFFFFF" cx="514.5" cy="252.7" r="1.8"/>
			<polygon fill="#FFFFFF" points="508.7,260.7 507.1,253.4 507.8,253.3 509.3,259.9 517.1,259 526.7,257 520.3,248.2 514.4,244.4
				514.7,243.8 520.8,247.7 527.9,257.4 517.2,259.6 			"/>
			<polygon fill="#FFFFFF" points="517.5,258.7 516.8,258.4 519.8,248.9 514.8,252.9 514.3,252.4 521.3,246.9 			"/>

				<rect x="511.8" y="250.3" transform="matrix(0.5369 -0.8437 0.8437 0.5369 21.0836 550.6939)" fill="#FFFFFF" width="0.7" height="11.8"/>
		</g>
	</g>
	<g id="iot_gateway">
		<circle fill="#E12634" cx="166.5" cy="266.7" r="12.5"/>
		<rect x="164.3" y="269.1" fill="none" stroke="#E62134" stroke-width="1.5" stroke-miterlimit="10" width="88" height="58.7"/>
		<g>
			<g>
				<g>
					<path fill="#FFFFFF" d="M159.5,273.1v-12.8c0-0.1,0.1-0.2,0.3-0.2s0.3,0.1,0.3,0.2v12.1l4.2-1.2v-9.5c0-0.1,0.1-0.2,0.3-0.2
						s0.3,0.1,0.3,0.2v9.8L159.5,273.1z"/>
					<path fill="#FFFFFF" d="M160.9,272.6c-0.1,0-0.2-0.1-0.2-0.2v-11.6c0-0.1,0.1-0.2,0.2-0.2s0.2,0.1,0.2,0.2v11.6
						C161.1,272.6,161,272.6,160.9,272.6z"/>
					<path fill="#FFFFFF" d="M162.1,272.3c-0.1,0-0.2-0.1-0.2-0.2v-11c0-0.1,0.1-0.2,0.2-0.2c0.1,0,0.2,0.1,0.2,0.2v11
						C162.3,272.2,162.2,272.3,162.1,272.3z"/>
					<path fill="#FFFFFF" d="M163.4,271.9c-0.1,0-0.2-0.1-0.2-0.2v-10.3c0-0.1,0.1-0.2,0.2-0.2c0.1,0,0.2,0.1,0.2,0.2v10.3
						C163.5,271.8,163.5,271.9,163.4,271.9z"/>
					<polygon fill="#FFFFFF" points="164.5,263.2 159.7,261.9 159.8,261.6 164.6,263 					"/>
				</g>
				<rect x="159" y="260.1" fill="#FFFFFF" width="1.1" height="13.3"/>
			</g>
			<g>
				<g>
					<path fill="#FFFFFF" d="M173.5,273.1l-5.3-1.6v-9.8c0-0.1,0.1-0.2,0.3-0.2s0.3,0.1,0.3,0.2v9.5l4.2,1.2v-12.1
						c0-0.1,0.1-0.2,0.3-0.2s0.3,0.1,0.3,0.2L173.5,273.1L173.5,273.1z"/>
					<path fill="#FFFFFF" d="M172.1,272.6c-0.1,0-0.2-0.1-0.2-0.2v-11.6c0-0.1,0.1-0.2,0.2-0.2c0.1,0,0.2,0.1,0.2,0.2v11.6
						C172.2,272.6,172.2,272.6,172.1,272.6z"/>
					<path fill="#FFFFFF" d="M170.8,272.3c-0.1,0-0.2-0.1-0.2-0.2v-11c0-0.1,0.1-0.2,0.2-0.2s0.2,0.1,0.2,0.2v11
						C171,272.2,170.9,272.3,170.8,272.3z"/>
					<path fill="#FFFFFF" d="M169.6,271.9c-0.1,0-0.2-0.1-0.2-0.2v-10.3c0-0.1,0.1-0.2,0.2-0.2c0.1,0,0.2,0.1,0.2,0.2v10.3
						C169.8,271.8,169.7,271.9,169.6,271.9z"/>
					<polygon fill="#FFFFFF" points="168.5,263.2 168.4,262.9 173.1,261.6 173.2,261.9 					"/>
				</g>
				<rect x="172.9" y="260.1" fill="#FFFFFF" width="1.1" height="13.3"/>
			</g>
		</g>
		<g>
			<rect x="177.8" y="272.9" fill="none" width="60.6" height="7.7"/>
			<text transform="matrix(1 0 0 1 188.7314 278.6555)" fill="#4378BB" font-family="'HelveticaNeue-Bold'" font-size="8px">App Logic</text>
		</g>
		<g>
			<rect x="166.5" y="287.7" fill="none" width="83.6" height="8.6"/>
			<text transform="matrix(1 0 0 1 190.8757 293.4172)" fill="#4378BB" font-family="'HelveticaNeue-Bold'" font-size="8px">Analytics</text>
		</g>
		<g>
			<rect x="166.8" y="302.1" fill="none" width="83" height="9.6"/>
			<text transform="matrix(1 0 0 1 197.0158 307.7639)" fill="#4378BB" font-family="'HelveticaNeue-Bold'" font-size="8px">Agent</text>
		</g>
		<g>
			<rect x="170.7" y="317.2" fill="none" width="76.7" height="6.8"/>
			<text transform="matrix(1 0 0 1 174.5927 322.9358)" fill="#4378BB" font-family="'HelveticaNeue-Bold'" font-size="8px">Device Data Store</text>
		</g>
		<line fill="none" stroke="#E62134" stroke-width="0.5" stroke-miterlimit="10" x1="163.9" y1="284.1" x2="252.2" y2="284.1"/>
		<line fill="none" stroke="#E62134" stroke-width="0.5" stroke-miterlimit="10" x1="163.5" y1="298.4" x2="251.8" y2="298.4"/>
		<line fill="none" stroke="#E62134" stroke-width="0.5" stroke-miterlimit="10" x1="163.5" y1="312.8" x2="251.8" y2="312.8"/>
	</g>
	<g id="iot_devicemgmt">
		<circle fill="#02B19D" cx="517.8" cy="151.5" r="23"/>
		<g>
			<g>
				<g>
					<path fill="#FFFFFF" d="M531.5,147.4c0.1-0.2,0.2-0.5,0.3-0.7l2-0.5l-0.2-2.5l-1.9-0.3c-0.2-0.5-0.6-1-1-1.5l0.4-1.8l-2.3-1.1
						l-1.2,1.4c-0.6-0.1-1.2,0-1.8,0.1l-1.4-1.4l-2.1,1.4l0.8,1.9c-0.1,0.2-0.3,0.4-0.4,0.7c-0.1,0.2-0.2,0.5-0.3,0.7l-2,0.5
						l0.2,2.5l1.9,0.3c0.2,0.5,0.6,1,1,1.5l-0.4,1.8l2.3,1.1l1.2-1.4c0.6,0.1,1.2,0,1.8-0.1l1.4,1.4l2.1-1.4l-0.8-1.9
						C531.2,147.9,531.4,147.6,531.5,147.4z M531.4,149.8l-1.6,1l-1.2-1.1l-0.2-0.2l-0.2,0.1c-0.5,0.1-1.1,0.2-1.6,0.1l-0.2,0
						l-0.1,0.2l-0.9,1.2l-1.7-0.8l0.3-1.5l0.1-0.2l-0.2-0.2c-0.4-0.4-0.7-0.8-0.9-1.3l-0.1-0.2l-0.2,0l-1.6-0.2l-0.2-1.8l1.6-0.4
						l0.2-0.1l0.1-0.2c0.1-0.3,0.2-0.5,0.3-0.7c0.1-0.2,0.2-0.4,0.4-0.6l0.1-0.2l-0.1-0.2l-0.7-1.6l1.6-1l1.2,1.1l0.2,0.2l0.2-0.1
						c0.5-0.1,1.1-0.2,1.6-0.1l0.2,0l0.1-0.2l0.9-1.2l1.7,0.8l-0.3,1.5l-0.1,0.2l0.2,0.2c0.4,0.4,0.7,0.8,0.9,1.3l0.1,0.2l0.2,0
						l1.6,0.2l0.2,1.8l-1.6,0.4l-0.2,0.1l-0.1,0.2c-0.1,0.2-0.2,0.5-0.3,0.7c-0.1,0.2-0.2,0.4-0.4,0.6l-0.1,0.2l0.1,0.2L531.4,149.8
						z"/>
				</g>
				<g>
					<path fill="#FFFFFF" d="M528.2,143c-1.3-0.6-2.8-0.1-3.4,1.2c-0.6,1.3-0.1,2.8,1.2,3.4c1.3,0.6,2.8,0.1,3.4-1.2
						C530,145.1,529.5,143.6,528.2,143z M526.7,146c-0.4-0.2-0.6-0.7-0.4-1.1c0.2-0.4,0.7-0.6,1.1-0.4c0.4,0.2,0.6,0.7,0.4,1.1
						S527.1,146.2,526.7,146z"/>
				</g>
			</g>
			<ellipse fill="#FFFFFF" cx="517.4" cy="165" rx="1.4" ry="1.4"/>
			<rect x="515.5" y="136.6" fill="#FFFFFF" width="3.8" height="0.7"/>
			<path fill="#FFFFFF" d="M522.7,150.4l0.4-1.8c-0.4-0.4-0.7-0.9-1-1.5l-1.9-0.3l-0.2-2.5l2-0.5c0.1-0.2,0.2-0.5,0.3-0.7
				c0.1-0.2,0.3-0.5,0.4-0.7l-0.8-1.9l2.1-1.4l0.6,0.6v-1.2h-14.3v23.8h14.3v-11L522.7,150.4z"/>
			<path fill="#FFFFFF" d="M526.1,151.3v13.3c0,1.6-1.3,2.9-2.9,2.9h-11.5c-1.6,0-2.9-1.3-2.9-2.9v-26.1c0-1.6,1.3-2.9,2.9-2.9h11.5
				c1.6,0,2.9,1.3,2.9,2.9v1.5h1v-1.5c0-2.2-1.8-3.9-3.9-3.9h-11.5c-2.2,0-3.9,1.8-3.9,3.9v26.1c0,2.2,1.8,3.9,3.9,3.9h11.5
				c2.2,0,3.9-1.7,3.9-3.9v-13.3H526.1z"/>
		</g>
	</g>
</g>
</svg>
